<?xml version="1.0" encoding="UTF-8"?>
<svg id="Capa_1" xmlns="http://www.w3.org/2000/svg" version="1.1" viewBox="0 0 522.3 132.9">
  <!-- Generator: Adobe Illustrator 29.6.1, SVG Export Plug-In . SVG Version: 2.1.1 Build 9)  -->
  <defs>
    <style>
      .st0 {
        fill: #3a3a3a;
      }

      .st1 {
        fill: #f43f5f;
      }
    </style>
  </defs>
  <g>
    <path class="st0" d="M111.2,93.1l-.3-10.8h.9c3,8.1,9.4,14.4,19,14.4s9.6-3.2,9.6-9.1-9.3-10.4-15-12.7c-7.4-3.1-13.6-5.5-13.6-13.9s7.2-14.5,18.5-14.5,10.1,1.2,13.8,3l.3,9.4-.8.3c-3-7.4-9.1-11.4-16.1-11.4s-10.3,3.4-10.3,9.1,7.3,9,13,11.3c7.3,2.8,16.1,6,16.1,14.7s-9.1,15.3-17.4,15.3-14.1-2.4-17.8-5.1Z"/>
    <path class="st0" d="M150.2,96.5c2.4-.8,2.9-3,2.9-8.1v-16.6c0-4.2-1.1-5-2.9-5.8v-1l9.5-4.2.7.6v6c4-3.2,9.1-6.5,14.8-6.5s8.4,1.9,9.7,6.6c4-3.2,9.2-6.6,14.9-6.6s10.4,3.5,10.4,11.9v15.5c0,5.2.5,7.3,2.9,8.1v1h-13.1v-1c2.4-.8,2.9-3,2.9-8.1v-14.2c0-6.5-2.1-10.3-7.4-10.3s-6.5,1.7-10.3,4.7c.3,1.3.4,2.7.4,4.3v15.5c0,5.2.5,7.3,2.9,8.1v1h-13.1v-1c2.4-.8,2.9-3,2.9-8.1v-14.2c0-6.5-2.1-10.3-7.4-10.3s-6.5,1.7-10.4,4.8v19.7c0,5.2.5,7.3,2.9,8.1v1h-13.1v-1Z"/>
    <path class="st0" d="M240.8,94.6v-11.9c-2,8.4-7.2,15.5-14.7,15.5s-9.8-3.4-9.8-9.4,7.6-10.3,16.5-12.8l8-2.3c-.1-7.1-4-9.9-9.4-9.9s-8,1.7-11.7,6.1l-.7-.6c4-5,9.6-8.3,16.1-8.3s12.8,4.7,12.8,13.5v13.9c0,5.2.5,7.3,2.9,8.1v1h-7.2c-1.9,0-2.9-1-2.9-2.9ZM229.7,92.9c7.1,0,11-9.9,11.1-16.4v-1.9l-7.7,2.2c-3.4.9-10.1,3.4-10.1,9.4s3.4,6.7,6.7,6.7Z"/>
    <path class="st0" d="M254.3,96.5c2.4-.8,2.9-3,2.9-8.1v-16.6c0-4.2-1.1-5-2.9-5.8v-1l9.5-4.2.7.6v8.7c1.1-2.5,3-4.8,5.3-6.3,2.7-1.9,5.4-2.8,8.9-2.8s4.6.6,4.6,2.2-1.6,4.7-4.9,4.7-4.8-.7-9.4-2.2c-1.8,1.5-4.2,4.8-4.5,8.4v14.3c0,5.2.5,7.3,2.9,8.1v1h-13.1v-1Z"/>
    <path class="st0" d="M290.8,87.3v-24.7h-4.6v-1.2l10.8-9.5h1.2v9.5h11.2l-.3,1.2h-10.9v24.8c0,4.5,1.7,6.4,4.8,6.4s4-.6,6.4-3.6l.7.7c-3.8,4.4-7.5,7.3-11.8,7.3s-7.5-3.1-7.5-10.9Z"/>
    <path class="st0" d="M328.2,96.5c2.4-.8,2.9-3,2.9-8.1v-32.1c0-5.2-.5-7.3-2.9-8.1v-1h13.4v1c-2.4.8-2.9,3-2.9,8.1v32.1c0,5.2.5,7.3,2.9,8.1v1h-13.4v-1Z"/>
    <path class="st0" d="M347,96.5c2.4-.8,2.9-3,2.9-8.1v-16.6c0-4.2-1.1-5-2.9-5.8v-1l9.5-4.2.7.6v6c4-3.2,9.1-6.5,14.8-6.5s11.1,3.5,11.1,11.9v15.5c0,5.2.5,7.3,2.9,8.1v1h-13.1v-1c2.4-.8,2.9-3,2.9-8.1v-14.2c0-6.5-2.8-10.3-8.1-10.3s-6.5,1.7-10.4,4.8v19.7c0,5.2.5,7.3,2.9,8.1v1h-13.1v-1Z"/>
    <path class="st0" d="M386.5,62.5v-1h12.3v1c-2.4.8-1.4,2.7.7,7.4l8.6,20.2,7.8-20.1c1.8-4.9,1.3-7-1.2-7.6v-1h7.7v1c-2.1.7-3.5,2.7-5.4,7.6l-10.5,27.4h-3.4l-11.5-27.6c-2-4.8-3.5-6.7-5.1-7.4Z"/>
    <path class="st0" d="M423.8,96.5c2.4-.8,2.9-3,2.9-8.1v-16.6c0-4.2-1.1-5-2.9-5.8v-1l9.5-4.2.7.6v26.9c0,5.2.5,7.3,2.9,8.1v1h-13.1v-1ZM425,53.5c0-2.8,2.2-5,4.9-5s4.9,2.2,4.9,5-2.2,4.9-4.9,4.9-4.9-2.2-4.9-4.9Z"/>
    <path class="st0" d="M445.1,87.3v-24.7h-4.6v-1.2l10.8-9.5h1.2v9.5h11.2l-.3,1.2h-10.9v24.8c0,4.5,1.7,6.4,4.8,6.4s4-.6,6.4-3.6l.7.7c-3.8,4.4-7.5,7.3-11.8,7.3s-7.5-3.1-7.5-10.9Z"/>
    <path class="st0" d="M466.1,80.8c0-12.2,9.6-19.9,18.9-19.9s14.9,6.7,14.9,13h-27.3v2.3c-.1,9.4,5.6,16.1,14.8,16.1s9.4-2.3,12.5-5.7l.6.7c-3.3,5-9,10.8-17.4,10.8s-17.1-5.7-17.1-17.4ZM492.7,72.9c-.9-5.9-4.9-10.6-9.9-10.7-6.1,0-9.2,5-10.1,10.7h19.9Z"/>
  </g>
  <path class="st1" d="M111,34.4c-.8-5.7-3.5-11.2-7.3-15.5-7.6-8.5-18.8-11.9-29.9-9.7-4.1.8-8,2.4-11.6,4.7-5.8,3.8-10.3,9.4-13,15.7-3.6-5.4-8.9-9.7-15.2-11.4-2.6-.7-5.4-1-8.1-.8-5.3.4-10.5,2.6-14.2,6.4-3.1,3.2-4.9,7.6-5.5,12-.6,4.8,0,9.6,1.1,14.3,5.1,20.5,24.8,41,43.9,49.4.8.4,1.7-.2,1.9-1,1.9-4.8,4.5-9.4,7.4-13.7,3.1-4.6,6.5-8.9,10.3-13,2.5-2.8,5.2-5.4,8-7.9,5.7-4.8,13-11.7,14.3-19.4.2-1.2.3-2.5.2-3.8-.2-4.1-1.9-8.2-5.2-10.8-3-2.4-6.8-3.5-10.6-3.6-2.3,0-4.7.4-6.8,1.4-4.6,2.2-7.5,7-8.8,11.8,0,.3.4.5.5.1.9-3.1,2.5-6.1,4.8-8.3.6-.6,1.3-1.2,2-1.6,0,0,.2-.1.2-.1,0,0,.2-.1.2-.1.3-.2.6-.4.9-.5.2,0,.4-.2.6-.3.1,0,.5-.2.6-.2,4.8-1.7,11.2-.3,14.9,3.1,2.6,2.3,3.6,5.8,3.6,9.2,0,3-1.1,5.3-3,7.6-1.6,1.9-3.6,3.6-5.5,5.2-2.5,2.1-5.1,4.1-7.6,6.2-3.9,3.5-7.5,7.4-10.7,11.6-2.8,3.7-5.4,7.5-7.5,11.6-2.2,4.2-4.1,8.6-5.2,13.2-2.2-.9-4.3-2-6.4-3.1-12.5-7.1-23.4-18.2-30.2-30.8-.4-.8-.9-1.7-1.2-2.5-.1-.2-.3-.7-.4-.9h0c0-.1-.4-1.1-.4-1.1-.6-1.3-1.1-2.7-1.6-4.1-.1-.3-.2-.7-.3-1,0-.3-.2-.8-.3-1-1.1-3.9-1.7-7.8-1.7-11.9.1-6.7,2.5-13,8.5-16.5,2.2-1.3,4.8-2.1,7.3-2.4,3.2-.4,6.6,0,9.5,1.3,2.3,1,4.5,2.4,6.3,4.2,3.9,3.8,6.3,9,6.9,14.1.3,1.4,1.4,2.6,3,2.8,2,.3,3.9-1.1,4.1-3.1.5-3.3,1.6-6.5,3.2-9.4,2.7-5.1,6.9-9.4,12.1-11.9,5.8-2.8,12.8-3.5,19-1.5,7.2,2.3,13.2,8.6,15.2,15.9.1.6.3,1.2.4,1.7,0,0,0,.3,0,.3,0,0,0,.1,0,.1h0c0,.1,0,.7,0,.7,0,0,0,.2,0,.3,0,.1,0,.5,0,.6,0,0,0,.2,0,.3v.6s0,.6,0,.6c0,.1,0,.2,0,.3,0,3.6-.9,7.2-2.3,10.6-5.1,12.5-16.5,21-25.9,30.2-2.1,2-4.1,4.1-6,6.3-1.9,2.2-3.7,4.6-5.2,7.2-2.9,4.9-5,10.4-5.3,16.1-.1,2.2,0,4.4.6,6.6,0,.2.2.3.3.3.2,0,.4-.1.4-.3.1-.9.2-1.9.4-2.8.2-1,.4-2,.7-3,1.2-4.2,3.2-8.1,5.6-11.8,2.5-3.7,5.4-7.2,8.6-10.3,8.7-8.7,19.2-15.8,26.6-25.8,3.3-4.5,6.1-9.5,7.6-14.9,1.2-4.2,1.6-8.7,1-13Z"/>
</svg>