<?xml version="1.0" encoding="UTF-8"?>
<svg id="Capa_1" xmlns="http://www.w3.org/2000/svg" version="1.1" viewBox="0 0 621.5 705">
  <!-- Generator: Adobe Illustrator 29.6.1, SVG Export Plug-In . SVG Version: 2.1.1 Build 9)  -->
  <defs>
    <style>
      .st0 {
        fill: #3E3F33;
      }
    </style>
  </defs>
  <path class="st0" d="M2.9,28.6l20.1,253.6L4.3,683.2v1.2l50.5,1.1,1,14.3v1.1l266-9.6,252.4,5.4h1.6l.7-14.7,43.4-1.6h1.6l-28.3-357.7,14.2-304.2v-1.2l-38.3-.8-.5-7.1v-1.1l-142.6,5.2L37.3,4.8h-1.6l-1,22.6-30.2,1.1h-1.6ZM7.4,682.1l17.5-375.6,29.7,376.7-47.2-1h0ZM26,282.2L37.7,29.7l388.2-14.2,140.4,2.9,23.9,304-16.6,357.1-251.7,9.3-264.3-5.6-31.6-401.1ZM58.8,698.5l-1-12.9,223.2,4.8-222.2,8.2h0ZM572.9,694.3l-210.1-4.5,210.6-7.7-.5,12.1h0ZM618.2,678l-41.6,1.6,15.4-332.8,26.2,331.3h0ZM604.2,19.3l-12.9,279-22-279.7,35,.7h0ZM565.6,10.4l.5,5.8-99.3-2.2,98.8-3.6ZM38.7,7.2l346.3,7.4L37.9,27.4s.9-20.2.9-20.2ZM34.7,29.9l-10.7,228.3L6,30.9l28.5-1h.2Z"/>
</svg>