<?xml version="1.0" encoding="UTF-8"?>
<svg xmlns="http://www.w3.org/2000/svg" version="1.1" viewBox="0 0 8192 979.1">
  <!-- Generator: Adobe Illustrator 29.5.1, SVG Export Plug-In . SVG Version: 2.1.0 Build 141)  -->
  <defs>
    <style>
      .st0 {
        fill: none;
        stroke: #77582e;
        stroke-miterlimit: 10;
        stroke-width: 7.5px;
      }

      .st1 {
        isolation: isolate;
      }

      .st2 {
        fill: #c5a467;
      }

      .st3 {
        display: none;
      }
    </style>
  </defs>
  <g id="Capa_1">
    <g class="st1">
      <g id="Capa_11" data-name="Capa_1" class="st3">
        <g>
          <path class="st0" d="M8209.9,3.5c-1280.4,515.9-2928.4,306.4-2928.4,306.4C2393.8,137.7,789.1,370.9-7.1,569.3"/>
          <path class="st0" d="M-7.3,849.1c1429.9,376,4512.1-272.2,4512.1-272.2,1884.7-445.3,3705.4,282.6,3705.4,282.6"/>
          <path class="st0" d="M-7.9,294c1429.6-376,4511.3,272.2,4511.3,272.2,1884.4,445.3,3704.8-282.6,3704.8-282.6"/>
        </g>
      </g>
    </g>
  </g>
  <g id="Capa_2">
    <g>
      <path class="st2" d="M8047.8,312.8c-202.3,0,0,202,0,202,0,0,202.3-202,0-202ZM8047.8,440.6c-37.8,0-68.3-25.4-68.3-56.7s30.6-56.7,68.3-56.7,68.3,25.4,68.3,56.7-30.6,56.7-68.3,56.7Z"/>
      <path class="st2" d="M8047.8,334.9c-32.6,0-59,21.9-59,48.9s26.4,49,59,49,59-21.9,59-49-26.4-48.9-59-48.9ZM8047.8,424.9c-27.3,0-49.5-18.4-49.5-41.1s22.2-41.1,49.5-41.1,49.5,18.4,49.5,41.1-22.2,41.1-49.5,41.1Z"/>
      <path class="st2" d="M8070.8,554.3c0,10.5-10.3,19-22.9,19s-22.9-8.5-22.9-19,10.3-19,22.9-19,22.9,8.5,22.9,19Z"/>
    </g>
    <path class="st2" d="M262.6,848.2h0c21.6,0,41.6-9.6,52.4-25.3l110.4-159.6c7.7-11.1,21.7-17.9,37-18.1l84-.7c20.9-.2,41.6-4.3,60.3-12l12.2-5c9.7-4,9.7-15.6,0-19.7l-12.2-5c-18.8-7.8-39.4-11.9-60.3-12l-84-.7c-15.3-.1-29.4-7-37-18.1l-110.4-159.6c-10.8-15.6-30.8-25.3-52.4-25.3h0c45,69.4,70.6,156.2,80,192.4,1.3,4.9-3.3,9.6-9.3,9.5h0l-4.6-14.8c-2.2-7.2-10.7-11.8-19.5-10.4l-23.6,3.6c-3.2.5-6.1,1.8-8.2,3.8h0c-2.3,2.1-5.3,3.5-8.6,3.9l-8.5,1.1,9.5,1.4c3,.4,5.7,1.6,7.8,3.4l3.6,3,5.8,4.7h-17.8c-11.4-.2-22.9.9-34,3.2l-55.9,11.7-22.4-50.5c-4.8-10.8-17.9-17.4-31.5-16l-20.7,2.2,32.6,73-15.6,3.2c-2.6.5-2.6,3.6,0,4.1l15.6,3.2-32.6,73,20.8,2.2c13.6,1.4,26.6-5.1,31.5-15.8l22.9-50.5,55.3,11.5c11.1,2.3,22.5,3.4,34,3.4h17.8c0-.1-5.8,4.6-5.8,4.6l-3.6,3c-2.1,1.8-4.8,3-7.8,3.4l-9.5,1.4,8.5,1.1c3.3.4,6.4,1.8,8.6,3.9h0c2.2,2,5.1,3.4,8.2,3.8l23.6,3.6c8.8,1.3,17.3-3.2,19.5-10.4l4.6-14.8h0c6,0,10.6,4.6,9.3,9.5-9.4,36.2-35,122.9-80,192.4Z"/>
    <g>
      <path class="st2" d="M783.4,631.9c-.5,0-.9,0-1.4,0-22.3-.8-44.5-1.7-66.8-2.7-11-.5-19.2-5.7-18.3-11.7.9-6,10.5-10.5,21.6-10,22.1,1,44.2,1.9,66.3,2.7,11,.4,19.3,5.6,18.6,11.6-.7,5.7-9.5,10.1-19.9,10.1Z"/>
      <path class="st2" d="M5510.9,883.4c-12.3,0-24.8-.3-37.1-.8-11-.5-19.2-5.8-18.3-11.7.9-6,10.6-10.5,21.6-9.9,42.7,1.9,85.5.2,125-5.2,10.8-1.5,21.6,2.1,24.3,7.9,2.7,5.8-3.8,11.7-14.6,13.2-32.3,4.4-66.3,6.6-101,6.6ZM5346.9,866.1c-2.5,0-5-.2-7.4-.8-44.1-9.5-84.2-22.3-119.2-38.1-8.5-3.8-9.7-10.7-2.7-15.3,7-4.6,19.6-5.3,28.2-1.5,31.8,14.3,68.3,25.9,108.5,34.6,10.3,2.2,15.3,8.5,11.2,14.1-3.1,4.3-10.6,6.9-18.6,6.9ZM5726.8,847.2c-6.3,0-12.5-1.6-16.4-4.6-6.3-4.9-4.1-11.7,4.9-15.2,33.9-12.9,64.4-28.9,90.5-47.5,6.7-4.8,19.3-5.7,28-2.1,8.8,3.6,10.5,10.5,3.8,15.3-28.6,20.4-62.1,38-99.4,52.2-3.5,1.3-7.5,2-11.4,2ZM5148.2,775c-7,0-13.9-2-17.5-5.6-20.1-19.8-33-41-38.3-63.1-.8-3.3-1.4-6.6-1.9-9.8-.9-6,7.3-11.2,18.3-11.7,10.8-.5,20.7,4,21.5,10,.4,2.9,1,5.8,1.7,8.7,4.7,19.4,16,38,33.6,55.4,5.3,5.3,1.8,11.9-7.8,14.8-3.1.9-6.4,1.4-9.7,1.4ZM5886.8,734.8c-2.5,0-5-.3-7.5-.8-10.3-2.2-15.2-8.6-11.1-14.2,15.7-21.2,26.8-43.7,33.2-67,1.6-5.9,11.8-10.1,22.7-9.2,10.9.9,18.5,6.4,16.9,12.4-6.8,25-18.8,49.2-35.6,71.9-3.1,4.2-10.6,6.8-18.6,6.8ZM2774.2,649.5c-10.8,0-19.7-4.7-20-10.6-.3-6,8.5-11,19.5-11.1,41.7-.5,85.6-2,130.8-4.5,10.9-.6,20.8,3.8,21.9,9.8,1.1,6-6.9,11.3-17.9,11.9-46.1,2.5-91.1,4-133.8,4.6-.2,0-.3,0-.5,0ZM2641.8,647.8c-.5,0-1,0-1.5,0-46.1-1.8-91.1-5-133.7-9.5-10.9-1.1-18-6.8-15.9-12.7,2.1-5.9,12.6-9.8,23.4-8.6,41.1,4.3,84.5,7.4,129,9.1,11,.4,19.3,5.6,18.5,11.6-.8,5.7-9.5,10.1-19.9,10.1ZM1180.7,638.8c-11,0-19.9-4.8-20-10.8,0-6,8.9-10.9,19.9-10.9,43.9-.1,88.3-.6,132-1.3,10.8-.1,20.3,4.5,20.6,10.6.3,6-8.4,11-19.4,11.2-44,.7-88.8,1.2-133,1.3h-.1ZM1048.2,638.3c-.1,0-.3,0-.4,0-44.2-.5-89-1.2-133-2.3-11-.3-19.6-5.3-19.1-11.3.5-6,9.7-10.7,20.9-10.4,43.7,1,88.1,1.8,132,2.3,11.1.1,19.8,5.1,19.6,11.1-.2,5.9-9.1,10.7-20,10.7ZM3037.9,635.7c-9.7,0-18.2-3.8-19.7-9.2-1.7-5.9,5.7-11.5,16.6-12.5,22.5-1.9,45.8-4.1,69.2-6.5,19.9-2,40.2-4.1,60.3-6.4,10.9-1.2,21.4,2.6,23.6,8.5,2.2,5.9-4.8,11.6-15.6,12.8-20.4,2.2-40.9,4.4-61,6.4-23.8,2.4-47.4,4.6-70.2,6.6-1.1,0-2.1.1-3.2.1ZM5124.5,635.2c-1.8,0-3.7-.1-5.6-.4-10.6-1.7-16.7-7.7-13.7-13.5,12.4-23.3,32-46.2,58-68.1,6-5,18.4-6.5,27.7-3.2,9.3,3.3,11.9,10,5.9,15.1-23.9,20-41.8,41-53.1,62.3-2.5,4.8-10.5,7.9-19.2,7.9ZM1445.6,634.4c-10.6,0-19.4-4.5-20-10.3-.6-6,7.8-11.1,18.9-11.5,43.9-1.3,88.3-2.9,131.8-4.8,11.2-.5,20.7,4,21.5,10,.9,6-7.3,11.2-18.4,11.7-43.8,1.9-88.5,3.5-132.7,4.8-.4,0-.7,0-1.1,0ZM1709.9,623c-10.1,0-18.8-4.2-19.9-9.8-1.2-6,6.8-11.3,17.8-12,30.1-1.7,60.5-3.6,90.4-5.6,13.5-.9,27-1.8,40.6-2.8,10.9-.8,21,3.4,22.5,9.3,1.5,6-6.2,11.4-17.2,12.2-13.7,1-27.4,1.9-41.1,2.8-30.2,2-60.8,3.9-91.1,5.6-.7,0-1.4,0-2.1,0ZM2382.3,620.2c-2.1,0-4.3-.2-6.4-.6-21.5-4-42.8-8.4-63.3-13.2-20.6-4.8-41.2-10.2-61.3-16.2-9.7-2.9-13.3-9.5-8-14.8,5.3-5.3,17.4-7.2,27.1-4.4,19,5.6,38.4,10.8,57.9,15.3,19.7,4.6,40,8.8,60.5,12.6,10.5,1.9,16.1,8.1,12.5,13.8-2.8,4.5-10.6,7.4-18.9,7.4ZM3297.6,607c-9,0-17.2-3.3-19.4-8.3-2.6-5.8,4-11.7,14.7-13.1,42.4-5.6,85.3-11.8,127.4-18.3,10.7-1.6,21.7,1.7,24.7,7.5,3,5.8-3.1,11.8-13.8,13.4-42.6,6.6-86,12.8-128.9,18.5-1.6.2-3.2.3-4.7.3ZM1972.4,603.3c-9.4,0-17.8-3.7-19.6-8.9-2-5.9,5.1-11.6,16-12.7,45.9-4.7,87.7-9.8,127.8-15.7,10.7-1.6,21.6,1.9,24.5,7.7,2.9,5.8-3.5,11.8-14.1,13.3-41.1,6-83.9,11.2-130.8,16-1.2.1-2.5.2-3.7.2ZM5925.7,593.4c-10.3,0-19.1-4.3-19.9-10-3.4-23.5-11.7-46.4-24.8-68-3.4-5.7,2.3-11.9,12.8-13.7,10.5-1.9,21.8,1.3,25.2,7,14,23.3,23,47.9,26.6,73.1.9,6-7.3,11.2-18.4,11.7-.5,0-1.1,0-1.6,0ZM3552.6,567.6c-8.4,0-16.3-2.9-19-7.5-3.4-5.7,2.3-11.9,12.8-13.7,41.7-7.4,83.6-15.3,124.5-23.5,10.3-2.1,21.9.8,25.7,6.5,3.8,5.6-1.5,11.9-11.9,14-41.4,8.3-83.7,16.3-126,23.8-2.1.4-4.1.5-6.2.5ZM2227.9,565.3c-8,0-15.6-2.6-18.7-7-4-5.6,1.1-11.9,11.4-14.1,42-8.8,81.5-18.9,117.4-29.8,9.6-2.9,21.8-1.1,27.2,4.2,5.4,5.2,2,11.9-7.7,14.8-37.6,11.5-78.8,22-122.5,31.2-2.4.5-4.8.7-7.2.7ZM2150.7,551.6c-4.4,0-8.9-.8-12.6-2.4-35.5-15.6-68.4-32.9-97.8-51.4-7.2-4.6-6.3-11.4,2.1-15.3,8.4-3.9,21-3.4,28.2,1.2,27.8,17.5,58.9,33.9,92.5,48.7,8.6,3.8,9.9,10.6,3,15.3-4,2.7-9.7,4-15.6,4ZM3801.3,517.8c-7.9,0-15.3-2.5-18.5-6.7-4.2-5.6.7-11.9,10.9-14.2,15.1-3.4,30.1-6.8,45.1-10.3,24.4-5.7,49.3-11.7,75.9-18.2,10.1-2.5,21.9,0,26.5,5.4,4.6,5.5.1,11.9-10,14.4-26.9,6.6-51.9,12.6-76.6,18.4-15.2,3.5-30.4,7-45.6,10.4-2.5.6-5.1.8-7.6.8ZM5265.5,515.2c-5.4,0-10.8-1.2-14.7-3.5-7.5-4.4-7-11.3,1.1-15.4,20-10,41.4-19.3,63.5-27.5,15.1-5.6,31-11,47.3-16.1,9.6-3,21.8-1.2,27.3,4.1,5.5,5.2,2.1,11.9-7.5,14.8-15.4,4.8-30.4,9.9-44.6,15.1-20.6,7.6-40.4,16.2-59,25.5-3.8,1.9-8.7,2.9-13.6,2.9ZM7711.5,500.6c-2.1,0-4.3-.2-6.5-.6-41.4-7.7-83.6-15.1-125.5-22.1-10.6-1.8-16.5-7.8-13.3-13.6,3.2-5.7,14.4-9,25-7.2,42.3,7,84.9,14.5,126.7,22.3,10.5,1.9,16,8.1,12.4,13.8-2.8,4.5-10.6,7.4-18.9,7.4ZM2457.3,494.3c-5.8,0-11.5-1.4-15.5-4-7-4.6-5.8-11.5,2.7-15.3,21-9.4,40.9-19.5,59.2-30,10.6-6.1,20.8-12.6,30.3-19.4,6.7-4.8,19.3-5.7,28-2.1,8.8,3.6,10.5,10.5,3.8,15.3-10.4,7.4-21.5,14.5-33.1,21.2-19.5,11.2-40.6,21.9-62.9,31.9-3.7,1.7-8.2,2.5-12.7,2.5ZM4043,458.6c-7.5,0-14.6-2.3-18.1-6.2-4.8-5.4-.6-11.9,9.4-14.5,36.6-9.5,73.1-19.2,109.6-28.9l9.6-2.5c9.9-2.6,21.9-.4,26.8,5,4.8,5.4.7,11.9-9.2,14.5l-9.6,2.5c-36.6,9.7-73.1,19.4-109.8,28.9-2.8.7-5.7,1.1-8.6,1.1ZM7458.1,458.4c-1.7,0-3.5-.1-5.2-.4-42.2-6.2-85.2-12.1-127.9-17.6-10.8-1.4-17.4-7.2-14.9-13.1,2.5-5.9,13.3-9.5,24.1-8.1,43.1,5.5,86.5,11.5,129.1,17.8,10.7,1.6,17,7.5,14.1,13.3-2.4,4.8-10.5,8-19.3,8ZM5843.9,457.7c-6.7,0-13.3-1.8-17.1-5.2-17.7-15.7-38.2-30.8-61.1-45.1-4.1.4-8.3.7-12.4,1.1-10.8,1-21.2-3-23-9-1.6-5.3,4.2-10.4,13.4-12.1.8-2.1,2.8-4.1,5.8-5.6,8.1-4.1,20.7-3.9,28.3.5,1.1.6,2.1,1.2,3.1,1.8,1.9-.2,3.8-.3,5.7-.5,30.5-2.5,61.5-4.8,92.1-6.9,10.9-.7,21,3.5,22.4,9.4,1.4,6-6.4,11.4-17.3,12.2-23.8,1.6-47.9,3.4-71.7,5.3,17.9,12,34.3,24.6,48.9,37.5,5.8,5.1,2.9,11.8-6.6,15-3.3,1.1-6.9,1.6-10.5,1.6ZM5493,443c-8.2,0-15.8-2.7-18.8-7.2-3.8-5.6,1.5-11.9,11.9-14,39.7-7.9,82-14.7,129.3-20.8,10.7-1.4,21.5,2.2,24.1,8.1,2.6,5.8-4.1,11.7-14.9,13.1-45.7,5.9-86.5,12.5-124.8,20.1-2.3.5-4.6.7-6.9.7ZM1979.4,442.7c-7,0-13.8-2-17.4-5.5-23-22.2-41-45.2-53.6-68.4-3.1-5.8,2.9-11.8,13.5-13.5,10.6-1.7,21.7,1.6,24.9,7.4,11.8,21.7,28.6,43.2,50.1,63.9,5.4,5.2,2,11.9-7.6,14.8-3.1,1-6.5,1.4-9.8,1.4ZM7200.1,425.3c-1.3,0-2.6,0-4-.2-42.9-4.7-86.5-9.1-129.7-13.1-10.9-1-18.2-6.6-16.4-12.5,1.8-5.9,12.2-9.9,23.1-8.9,43.6,4,87.7,8.4,131,13.2,10.8,1.2,17.8,6.9,15.7,12.8-1.9,5.2-10.3,8.7-19.6,8.7ZM6938.7,401.3c-.9,0-1.8,0-2.7,0-43.3-3.2-87.3-6-131-8.5-11-.6-19-6-17.9-11.9,1.1-6,10.9-10.4,21.9-9.7,44.1,2.5,88.6,5.3,132.3,8.6,10.9.8,18.6,6.3,17.1,12.2-1.4,5.5-9.9,9.4-19.8,9.4ZM4281.6,395.8c-7.5,0-14.6-2.3-18.1-6.2-4.8-5.4-.5-11.9,9.5-14.5,44.6-11.6,84.1-21.5,120.7-30.4,10.1-2.5,21.9,0,26.4,5.5,4.5,5.5,0,11.9-10.1,14.4-36.3,8.8-75.5,18.7-119.8,30.2-2.8.7-5.7,1.1-8.6,1.1ZM6013,390.6c-10.2,0-18.9-4.2-19.9-9.9-1-6,7.1-11.3,18.1-11.8,43.9-2.2,88.6-4.1,132.8-5.5,11.1-.4,20.5,4.2,21.2,10.2.7,6-7.7,11.2-18.8,11.5-43.8,1.4-88,3.3-131.5,5.5-.6,0-1.3,0-1.9,0ZM6675.1,386.6c-.5,0-.9,0-1.4,0-43.7-1.7-88-3-131.7-3.9-11-.2-19.7-5.3-19.2-11.3.4-6,9.5-10.6,20.8-10.5,44.1.9,88.9,2.2,133,3.9,11,.4,19.3,5.6,18.6,11.6-.7,5.7-9.5,10.1-19.9,10.1ZM6277.6,381.9c-10.8,0-19.7-4.7-20-10.6-.3-6,8.4-11,19.5-11.2,44.2-.7,88.9-.9,133.2-.8,11,0,20,4.9,19.9,10.9,0,6-9,10.8-20,10.8h-.1c-43.8-.1-88.1.1-131.9.8-.2,0-.4,0-.5,0ZM2615.8,380.7c-2.6,0-5.2-.3-7.7-.8-10.2-2.3-15-8.7-10.7-14.2,16.4-21.4,28.2-43.8,35-66.7,1.8-5.9,12.1-9.9,22.9-9,10.9,1,18.3,6.5,16.6,12.5-7.3,24.6-20,48.7-37.6,71.6-3.2,4.2-10.6,6.7-18.5,6.7ZM5663.9,353.1c-4.1,0-8.2-.7-11.8-2.1-34.1-13.6-71.2-25.9-110.2-36.6-9.9-2.7-13.8-9.3-8.9-14.6,5-5.4,17-7.5,26.9-4.8,40.9,11.2,79.9,24.2,115.8,38.5,8.9,3.5,10.9,10.4,4.3,15.2-3.9,2.9-10,4.5-16.2,4.5ZM4523.8,337.2c-7.9,0-15.4-2.6-18.6-6.8-4.1-5.6.8-11.9,11.1-14.2l11.6-2.5c38.5-8.3,76.7-16,113.7-22.8,10.5-1.9,21.8,1.1,25.4,6.8,3.6,5.7-2,11.9-12.5,13.8-36.3,6.7-73.9,14.3-111.7,22.5l-11.4,2.5c-2.4.5-5,.8-7.5.8ZM1906.5,305.6c-10.8,0-19.7-4.7-20-10.6-.1-2.4-.2-4.9-.2-7.4,0-11.1,1.3-22.2,3.7-33.1,2.6-11.4,7-22.9,13.1-34.2,3.1-5.8,14.3-9.1,24.9-7.4,10.6,1.7,16.7,7.8,13.5,13.5-5.5,10.1-9.5,20.4-11.8,30.7-2.3,10-3.4,20.3-3.4,30.5s0,4.5.2,6.8c.3,6-8.4,11-19.5,11.2-.2,0-.4,0-.6,0ZM4774.8,291.1c-8.8,0-16.9-3.2-19.3-8.1-2.8-5.8,3.5-11.8,14.2-13.3,44.4-6.4,88.4-11.8,130.9-16,10.8-1.1,21.3,2.9,23.2,8.8,2,5.9-5.3,11.6-16.1,12.6-41.4,4.1-84.4,9.3-127.7,15.6-1.7.2-3.5.4-5.2.4ZM5428.4,288.2c-2.1,0-4.1-.2-6.2-.5-41-7.3-83.3-12.9-125.7-16.7-10.9-1-18.3-6.6-16.4-12.5,1.8-5.9,12.2-9.9,23-8.9,44.4,4,88.7,9.9,131.5,17.5,10.5,1.9,16.3,8,12.8,13.7-2.7,4.6-10.6,7.5-19,7.5ZM5035.5,265.9c-10.3,0-19.1-4.3-19.9-10-.9-6,7.3-11.2,18.3-11.7,32.7-1.4,65.3-2.2,96.9-2.2h.3c12.5,0,25.2.1,37.5.3,11,.2,19.7,5.2,19.3,11.2-.4,6-9.6,10.7-20.7,10.5-12-.2-24.3-.3-36.5-.3-30.5,0-62.1.7-93.7,2.1-.6,0-1.1,0-1.6,0ZM2657,239.7c-10.2,0-18.9-4.2-19.9-9.9-4.1-23.9-14.2-46.2-30.1-66.4-4.3-5.5.4-11.9,10.5-14.3,10.2-2.4,21.9.2,26.3,5.7,17.5,22.3,28.7,46.9,33.2,73,1,6-7.1,11.3-18.1,11.8-.6,0-1.3,0-1.9,0ZM1979.7,169.7c-3.9,0-7.9-.6-11.4-1.9-9.1-3.4-11.4-10.2-5.1-15.1,26-20.4,57.4-38.9,93.5-55,8.6-3.8,21.2-3.1,28.2,1.5,7,4.6,5.7,11.5-2.8,15.3-33.2,14.8-62.1,31.8-86,50.5-3.9,3.1-10.1,4.7-16.5,4.7ZM2551.7,110.6c-5.1,0-10.1-1-14-3.1-15.4-8.3-32.7-15.6-51.2-22-16.6-5.7-34.3-10.4-52.6-14-10.4-2.1-15.7-8.3-11.9-14,3.8-5.6,15.3-8.5,25.7-6.5,20.9,4.2,41.1,9.5,60.1,16,21,7.1,40.5,15.5,58,24.9,7.9,4.2,8,11.1.2,15.4-3.9,2.2-9.1,3.3-14.3,3.3ZM2182.4,79.6c-7.8,0-15.2-2.5-18.4-6.6-4.3-5.5.4-11.9,10.6-14.3,44.5-10.3,89.7-16.3,134.6-18,10.9-.5,20.6,4.1,21.3,10.1.7,6-7.6,11.2-18.6,11.6-40.3,1.5-81.2,6.9-121.6,16.3-2.6.6-5.2.9-7.8.9Z"/>
      <path class="st2" d="M7899.8,538.5c-2.5,0-5-.3-7.4-.8-20.4-4.4-41.2-8.8-61.8-13.1-10.3-2.1-15.5-8.4-11.6-14,3.9-5.6,15.4-8.4,25.8-6.3,20.9,4.3,41.9,8.8,62.4,13.2,10.3,2.2,15.3,8.6,11.2,14.1-3.1,4.3-10.6,6.9-18.6,6.9Z"/>
    </g>
  </g>
</svg>