<?xml version="1.0" encoding="UTF-8"?>
<svg id="Layer_1" xmlns="http://www.w3.org/2000/svg" version="1.1" viewBox="0 0 2807 1604">
  <!-- Generator: Adobe Illustrator 29.5.1, SVG Export Plug-In . SVG Version: 2.1.0 Build 141)  -->
  <defs>
    <style>
      .st0 {
        fill: #c5a467;
      }
    </style>
  </defs>
  <path class="st0" d="M461.1,471.1c4.5,0,5.1,1.6,8.9,0,3.9-1.6,15.3-9.2,19.1-10.2,16.5-4.4-18.5,14.1-14.4,13,2.1-.5,23.5-9.2,25.6-13.1,2.1-4.1,3.2-6.3,3.2-6.3,0,0,13,13.3,14.2,13.8,2.7,1.2,2.6-6.4,6.2-4.9,3.5,1.5-3.8,6.9,7.7,3.2,3.4-1.1,1.7-3.6,1.7-3.6-.6-.1,4-2.5,23.7,5.2,3.7,1.5,14.8,2.7,18,3.7,3.1,1,4.3-1.8,8.7.5,16.8,9-10.5,9-2.9,10.9,29.8,7.4,35.7-8.3,44.9,7,3.1,5.2,5.6,7.3,6.8,7.7,1.2.4-1.2-2.5-.6-5.1.9-3.4-2.3-13.5-2.8-14.4-1.5-2.5-3.9-2.1.6-4.2,25.1-12.2,8.1,4,37.6,6.3,25,1.9,18.5,1,20.9-4.8,1.8-4.5,3.9-5.4,6-5.2,22.5,1.8-4.4,4.1,15.9,16.7-5.1-20.2,2.7-6.3,8.6-17.7,3.3-6.4-2.2-6.1-2.2-6.1-2.5.1-2.2-4.6,5.9-6.8,0,0,.4,1.2-.4-1-.7-2.1-4.6-1.7-8.7-2-8.1-.5-8.7-1.9-8.7-20.3s4.1-3.3,4.8-6.1c.7-2.8-.2-16.6-1.2-19.5-1-2.8,1.5-8.9,2-12.9.5-4,4.7-2.2,4.7-2.2-1.1-2.1,2.7-10,22.7-6.8-9.8.9,2,23.1-22,19.7,4.1,9.4,1,8.1-.4,15.9,0,0,8.7,2.4,9.1,7.9.5,5.5,4.8,6.4,5.8,11.5,1,5.1-4.2,9.3-3.1,10,2.5,1.8,2.6.7,12,2.1,0,0-1.7,2.6-.2,5.3,1.6,2.7.4,4.5.6,7.4.2,2.9,1.9,5.4,2.7,4.9,2.4-1.7,5.6-16.5,7.6-16.5s6.5,4.5,7,6.2c2.4,6.9-8,12.2-1.9,16.5,2.4,1.7,2.5,1.2,6.8,3.3,12.2,5.8,4.8-6.3,5.3-6.6.3-.2,6.4-.9,5-4.3-1.4-3.4-2.8-5.1,0-6.9,2.9-1.7,4.9-3.1,4.9-3.1-8.5-15.2-3-12.3,6.1-11.7,7.9.6,8.3,3.3,12.5,5.5,4.2,2.1,1.6,2.9,2.9,6.3,2,4.9-7.3,2.6-6,7.2,3.3,11.7,10,11.2.3,20.2-3.6,3.3-7.8,4.3-12.1,4.4-4.2,0-6.1,1.8-6.3.6-1.1-4.6-12.7.6-10.3,1.5,1.8.7,6.7.5,4.7,4.3-2.5,4.6-1.1,3.8-33.5,1.8,9.6,5.9,19,10.1,29.4,8.2-10.2,19-9,13.3-15.3,14.1-2.8.3-4.4,2.6-9.6,3.3-5.2.7-15.9-1.5-14.3-.7,10.5,4.9,8.7,2.3,12.7,5.7,4.2,3.5-7.2,1.5-11,6.6-8.9,12.2-12.1,15.8-13.4,24.9-.7,5.1-5.1,11.1-3.1,12.4,1.9,1.3,9.2,1.5,12.2,3.3,5,3.1,9.9,24,15.5,18.1,6.1-6.4,23.8,5,30,11.1,4.4,4.4,19.6,1.7,21,6.5,0,0,6.2.3,3.7,3-2.6,2.7-3.3,0-.7,4.5,2.6,4.5,2.5,10.5,1.8,13.5-.7,3,8.2,1.5,12,3.7,3.8,2.2,4,11.3,5.9,10.2,1.9-1.1,5.1-3.1,5.5-5.5.5-3.3-1-20.1-3.9-24.3-2-3,3.7-4.2,2.7-5.5-.9-1.3-.7-3.9,3.2-4.9,6.9-1.8,7,1.8,9.1-13.7,1-7.1-4.4-18.2-7.6-21.8-1.4-1.5-3.1-2,.6-6.8,3.8-4.8,1.6-3.8,1-5.2-4.6-12.4,0-13.6-1.9-19.8-1.3-4.3-9.3-7.1,12.9-4.7,12.2,1.3,8-4.1,19.6,3.4,3.6,2.3,5,1.7,6.8,4.5,4.8,7.3,5.7,1.9,14.5,5.8,0,0-2.7,1.5-2.2,6.6.9,9.5-2.9,12.4,2.4,13.2,3.1.5,15.4,12.7,19.1,3.4,2.5-6.3,5.8-2.7,7.3-4.3,1.2-1.2-5.1-4.7,4.5-13.7,2.2-2.1,3.8,2.1,5.7,5.8,14.1,27.6,14.9,24.5,12.7,28.1-2.3,3.8-3.4,5.4.2,7.1,10,4.8,4.9,10.1,6.7,11.2,1.2.8,5.5-1.5,8.7-.2,20,8.8,6.9,8.1.2,12.2-5.7,3.4-4.8,8.2-2.1,6.2,11.3-8.6,18.3-3.7,21.8-2.7,3.7,1,2.7,3.3,1.7,5.5-3.9,9,5.2,5.6-4.1,14.1-7.4,6.7-9.4-.7-22.3,11.3-3.7,3.4-5.5,2.6-10.9,2.8-5.3.3-3.2-2.7-4.9-2.1-1.7.6-3.8,2.4-7.2,2.8-27.2,2.7-19.7,0-23.5,8.6-2.2,5-6.2-4-17.3,15.3-3.9,6.7-9.1,10.8-9.1,10.8,4-.9,31.4-27.8,38.9-25.6,1.8.5,6.1,3.9,6.1,5.6s-1.3,3.1-4.4,6c-3.1,2.9-7.3,0-7,1.2,1.2,5.3,7.2,2.4,7.2,9.5s9.7,13.2,17.6,12.7c3.8-.2,4.1,5,6.2-4.7,1-4.7,5.4-10.7,6-5.3.5,3.9-1.7,9.3-3.8,10.5-2.1,1.2-1.6,2.7-1.6,3.9s-15.1,8.6-16.7,8c-3.4-1.4-10.3,8.9-13.6,8.7-2,0-3.8-.9-1-3.8,4.6-4.7,3-9.3,12.8-9.3s1.2-1.4,3-2.7c3.4-2.5-9.9.7-5.2-4.7-3.7,2-12.6,6.6-15.7,6.9-2.3,4.6-4.6,4.9-9.7,7.1-2.6,1.1-2.1-1.3-2.7-.6-.6.7-1,1.3-3.9,3.4-10.8,8.1-6.2,21.9-6.3,22.5,0,1.2-3.6-.8-4.6.2-1,.9-3.3,3.9-6.4,4.7-17,4.8-7.6,2.4-16.8,20.4,1.2-4.1-4.3-5.9-3.8-8.8-1.1,5.5,3.4,10.4,2.3,14.7-.8,3.2-2.4,7.1-4.3,8.2-1.9,1.1.5-2.1.5-4.7,0-4.4-5.1-2.2-1.5-12.9,2.6-7.6-8.9,5.4-3.3,13,2.6,3.5-1.7,3.2,0,8.2,1.7,5.1-2.1,7.5-1.4,8.3.7.8,2.8-.3,3.7,2.1,1.4,3.8-5-.7-2.7,5.1.6,1.4,1.7.5,1.2.9-8,7.3-3.1-2.1-12.3,9.4-1.6,2-2.7,1.3-4.3,2.7-15.8,13-14.2,11.4-16.5,21.5-2.9,13.3,15.6,31.1,5.6,41.2-1.9,2-3-1.4-5.7-3.4-2.7-2-.6-3.3-3.1-7.4-4.4-7.1-2.5-28.9-13.5-24.9-6.3,2.3-12.5-4.1-17.7-1.4-4.2,2.2-19.2-2.4-19.2,2.2s6.8.8,5.8,6.5c-.3,1.6-3.1-.9-4.5-1.5-1.5-.6-2.8,1.2-5.4,1.2s-3-2.5-5.3-2.8c-13.6-2.1-9.9-8-30.4,7.3-4.7,3.5-8.3,6.9-9.4,9.8-1.1,2.8-1.2,3.1,2.6,7.3,4.4,4.9,2.2,2.2-4.3,17.4-4,9.1,7.3,24.4,10.8,27.8,16.2,15.6,13.2,6.6,23.1,6.6s7.7,3.6,7.7,1.2,5-8.5,5.7-11.9c.6-2.6.6-7.7,3.8-8.1,3.2-.3,10.1-2,16.4-1.5,9,.6-.5,7-.5,12.9s.7,2.5-1.3,3.9c-2,1.5-.7-.9-1.6.6-.8,1.5-3.8,3.5-3.4,3.2.7-.6,4.7,10.7-5.5,16,4.6,2.6,10.9,0,17.3,3.1,5.4,2.5,30.1-10,16,31.2-1.9,5.5,13.7,13.2,19.3,14.7,1.7.5,20.1-9.7,25.8,4.3,4.2-19.6,18.4-21.3,28.2-24.3,9.7-3.1,64.4,9.7,65,9.9,5.7,2.4,8.3,9.1,14.2,14.6,5.9,5.5,13.2,10.5,16.4,13,6.8,5.6,32.5,1.9,34.1,18.2.8,7.9,11.8,3.3,20.1,19.5,3.5,6.9,2.4,8.7,7.2,10.5,4.8,1.7,37.9,10.6,46.2,13.9,8.3,3.3,18.8,12,21.5,13,2.8,1,7.7-.9,9.9.3,2.2,1.2-1.3,7.7,1.5,12.3,5.1,8.5,1.4,6.6-9.6,24.2-2.6,4.1-8.1,6.7-11.2,8.4-3.1,1.7-5.9,0-3.1,3.4,2.8,3.4.2,6.3-2.2,9.4-2.4,3.1.2,2.7-.6,12.7-.7,9.9,0,20.7-1.1,25-1.1,4.3-7.5-3.8-14.9,5.5-7.4,9.3-9.4,16.3-13.8,17.3-34.2,7.9-17.4,30.1-46.6,56.7-9.9,9-13.4,18.3-23.8,28.8-3.1,3.1-15.6-4.9-12.4-.5,2.4,3.3-1.4,0,.7,3.1,2,3.1,3.5,4.3-.9,9.8-4.4,5.5-9.5,4.4-13,5.3-3.5.9-8.7-3.6-9.1-1.4-2.1,12.7-15.6,11.2-15.1,13.4,3.5,16.2,10.6,17.9,3.1,17.2-20.8-2-5.9-7-20.4,23.3-2.2,4.6-4.4,2.2-4,7.7,1.5,21.9,9.8,10.7-1.1,20.9-5,4.6-5.3,3.9-9.9,11-4.6,7-9,6.7-7.4,12,1.7,5.3,2,13.2,4.8,21.1,2.8,7.9,8.5,6.5,17.5,12,10.3,6.3,28.5,2.7,3.5,7-13,2.3-19.3,6.1-41.6-10.3-15.6-11.5-13.7-14.6-21.9-33.8-9.4-22,32.8-181.9,32.8-227.9s-.6-1.2-2.6-7.5c-4.1-12.9-22.1-15.2-34.8-31.2-6.2-7.7-8.1-21.2-23.9-44.6-18.8-27.8-7.2-28-5.9-34.6,2.7-13.7,19.8-32,21.4-35.5,3.1-6.9.7-6.9-.4-13.5-1.1-6.7.4-5.6-1.7-9.3-2-3.6-3.1-8-5-9.3-9.7-6.4-8.2,13.5-16.4,4.6-1.3-1.4-28.9-5.7-28.9-21.3s-3.9-6.2-12.5-12.3c-8.7-6.2-12.3-7-22.8-9.6-15.2-3.7-16.3-16.8-29.1-15.4-7.7.9-17.1-3.4-23-5.8-17.3-7.1-41.7-9.6-37.7-28.5,1.7-8-21.4-21.6-25-31-2.8-7.2-6.8-6.9-12.1-12-11.8-11.3,2.7-16.1-24.7-31.7,19.2,48.8,19.4,35.4,27.8,49.9,4,7,.2,11.3-1.3,8.6-1.5-2.8-7.4-3.9-7.4-7.2,0-9.1-8.2-12.2-15.3-17.8-16.4-13.2,3.1-2.2,1.7-5.3-.9-2.1-7.2-8.4-10.1-12.9-2.9-4.5-3.9-9.4-6.8-17-2.9-7.5-13.8-14.7-19.2-15.3-10.8-1-8.8-16.1-13.2-24.2-2.4-4.3-12.7-18.7-12.9-24.2-.2-5.5-3.1-21.4.6-30.4,3.7-8.9,2.8-28.8,2.2-32.7-1.1-7.6-20.3-23.2,8.8-11.3-14.2-26.4-28.2-15.9-34.1-25.4-2-3.3-4.2-7.5-5.7-10.3-1.5-2.7-7.7-6-9.2-8.9-1.2-2.3-1.5-18.5-11.4-14.9-6.1,2.2-3.5-8.7-16.9-12.9-3.9-1.2-9.9-16.7-20.1-23.8-3-2.1-31.5-11.3-32.2-11.3s-9,1.2-11.2.5c-6.6-2-16-17.1-22.1-2.7-3.3,7.5-25.8,22.9-24.5,16.8,2.1-9.5,1.4-12.4,9.6-16.5,5.2-2.6,5-2.7,3-2.6-2,.2-3.5-.3.6-2.7,11.3-6.8,4.1-8-8.8,2.4-17.7,14.2-14.9,22.7-17.1,25.5-22.9,29.1-78.9,46.9-71.2,41.7,34.6-23.7,31.9-8.9,50.4-38.6,6.5-10.5-4.6-.1-15.8-4.3-2.8-1-9.9,3.3-12.5,1.4-2.6-1.9.2-5.8-1.5-7.7-2.4-2.7-19.9,1.9-19.9-10.1s-8.6-10.5,6.6-20.7c10.6-7.1,28.6-3.2,16.6-16.6,0,0,.9-.7,3.1-2.1,2.2-1.4.6-4.3-3.3-3.8-3.9.5-12.1,4.5-17.3,5.8-5.1,1.4-12.1.5-12-1.7,1.1-13.1-13-3.5,11.2-17,0,0,4,4.5,8.5,5,4.4.5,13.8-7.7,13.8-7.7-5.9-3.6-4.6-4.6-4.6-4.6-12.9-.2-13.8-1.6-15.3-8.1-.6-2.4-9.9-4.3-7.4-8.2,2.6-3.9,7.4-5.3,10.5-9.3,3.1-3.9,5.9-11.3,14.9-15.4,37.4-17.1,26.1-13,33.5-11,1.8.5,13.3-.5,17.7-.5s5.2,5,6.6,6.2c2.6,2.1,70.7,2.2,79.9,4.8,6.6,1.9,18.6,6.9,18.6,6.9,7.3-.9,6.6-9.8,11.1-9.8ZM903.8,272.2c-7.7,31.7-73.8,17.9-50.4,44.6,16.3,18.6,15.8,11.9,21.5,17.5,4,3.9,7,2.6,18,2.7,3.2,0,44.3,2.2,49.9,7.2,5.2,4.6,24.9,51.6,24.9,52.5,0,1.4-4.2,12.2-4.2,13.9s2.2,4.6,4.2,7c3.4,4-2.3,5,3.1,15.1.4.7,5.9-5.5,9.4-6.5,3.5-1,12.2,6.2,12.2,11.1,0,11.3,3.1,7.4-15.3,20.7-2.4,1.8-4.8,15.3-2.9,21.8,6.5,23.2,26.2,50.5,26.9,51.8,6.8,12.3,0,14.7,31.3,21.8,13.1,2.9,9.8,4.3,23.4-39.6,9.3-30.3-7.9-10.9,39.6-32.1,4.2-1.9,3.5-15.4,12.9-19.9,15.1-7.1,30.3-7.5,51.2-22.3,9.2-6.5,11.8-3.1,15.1-9.1,3.3-6-3.3-14.7-4-23.7-.7-8.9,2.9-9.4,4.8-17.5,5.8-25.4,22.5-21.3,19.7-32.6-1.3-5.1-5-12.9-5-18.5,0-15.2-7.1-12.4-1.9-26.6,2.8-7.4,10.1-5.5,9.6-8.8-.6-3.3-11.8-8.2-12-17.3-.4-18.6,10.1-15.8,25.8-32.6,1.3-1.4-.4-5.1,8.8-9.6,9.2-4.5,12.3-7.4,15.8-8.7,3.5-1.4,9-1.2-1.7-4.3-29.8-8.6-20.2.3-42,2.4-12.5,1.2-26.7,7-26.7,7,0,0,4.2-3.8.6-7.4-3.7-3.6,9.6-15.4,11.8-16.8,3.7-2.3-74.1-21.9-102.7-12.5-5.7,1.9-5,9.3-11.4,9.6-6.4.3-18.4-3.8-27.6-2.4-9.2,1.4-23.9,7.7-25.6,8.1-1.7.3,5.7,4.8,10.5,5.8,4.8,1,11,11,11,11-56.2-18.7-54.7-2.7-82.7-1.4-14.5.7-25.6,13.3-58.7,31-7.2,3.9,1.8,5.7,12.9,7.4ZM629,425.4c-3.4-3.9-6.3-11.8-11.8-8.6-5.5,3.2-11.5,2.3-10.6,1.6,1-.7-.1-4.1-3-5.1-2.8-1-4.5.6-7.5,2.3-3,1.7-12.3,4-8.5,1,3.8-3,2.6-4.6,1.2-8-1.3-3.4-11,2.4-16.2,6.1-5.1,3.6-8.2,9.3-11.3,13-8.2,10.1,21.5,7.8,9.7,12.1-6.2,2.3-11,3.9-7.9,5.8,8.6,5.3,19.1-2,33.3,1.8,8.8,2.4,14.1,2.3,14.1,2.3-8.9,5.5-49.3,3.2-43.4,8.7,13.4,12.6,19.2,7.5,25,8.9,4.5,1.1,2.1,6.3,3.3,7.1,1.2.8,9.8-.7,18.4-2.3,8.6-1.6,5.4-3,12.2-4.7,6.7-1.7,7-6.8,10.9-8,3.9-1.1,1.1,2.6,5.8,3.8,1.8.4,13.1,4.9,16.1,4.7,4.9-.3,10.7-3.7,9.9-4.2-3.1-2.4,2.7-8.9-7.9-2.7-2,1.1-1.8-3.1,2.3-5.1,4.2-2.1,7.9,0,10.3,0s.3-7.1-4.2-8.2c-4.4-1.1-6.4-3.9-13-7.5-6.6-3.7-3.2-5.3-5.1-10.1-2-4.8-6.1-19-9.8-21.5-3.7-2.5-7.6-1.8-11.3-4.3-.8,4.1,4.7,27.9-1.2,21.3ZM529.1,404.2c1.6,4.6,1.8,1.7-1.4,6.7-3.2,5-1.4,6.9-3.6,10.6-2.2,3.8-8.1,8.8-6.3,11.3,1.8,2.5,7.7,4,10.2,5.9,6.4,5.1,4.5,7.5,18.3.3,3.1-1.6,5.6-3.4,5.5-7.4-.3-11.3,3.3-1.1,5.2-6.1,1-2.6,2.7-6.1,4.8-8.1.6-.6,17.5-9.9,19.9-13.6,1.4-2.1-2.5-3.7-4.8-4.6-2.3-.9-5-4.6-10.4-4.6s-8.3,4.1-8.1,2.3c.3-2.4-11.2-8.1-32.7-1.9-4.8,1.4,1.7,4.5,3.3,9ZM688.9,459c-.7,1-3.9,2.1-5.9,4.3-2,2.3,4.2,1,6.1,1.7,2,.7,3.4,2.6,5,3.2,5.1,1.8,18.7-.9,17.3-3.9-.4-.8-7.4-7.7-12.5-10.4-9.4-5-5.4-1.5-10.1,5ZM665.7,405.5c-3.3,1.7-5.7,3.7-.1,6.5,16.6,8.4,15.3,17.5,24.7,13.8,8-3.1,11.2-6.7,12.3-9.9,1.1-3.2-1.1-3.9-3.1-6.9-4-6-4.3-3.3-11.9-3.3,0,0,2.7-3.4,7.1-5.6,4.4-2.2.7-3.7,2.8-5.7,2.1-2.1-5.3-3.1-8.5-2.3-3.2.8-3.3-.2-8.6-.5-5.3-.2-13.6,4.6-13.3,6.3.4,1.7,4.3,1,8,3.1,3.7,2.1,4.8,1.8,1.1,7.7-4.7,7.5-5.3-5.8-10.6-3.2ZM636.9,399.9c2.1.6,3.4-.6,6.7,3,3.3,3.5,6.3,5.5,7.6-.3,3.4-14.8-21.3-4.5-14.4-2.6ZM553.5,350.7c-6.2,4.9-7.4,8.8-12.1,11.9-6.3,4.1-3.7,11.5,6.5,6.2,2.2-1.1,4-4,5.4-2.3,2,2.5,12.3-14,15.5-13.4.6.1-2.1,3-1.1,5.4,1,2.4,5.4,2.5,9.3-1.6,3.9-4.1.4-7.9,3.4-11.1,3.1-3.2,5.6-2.8-.4-5.6-6-2.9-9.8.3-11.1,1.8-1.2,1.5-3.4-.9-15.5,8.7ZM570.6,374.3c-2.4,6.2,16.8,10,20.2.1,1.7-4.9,3.8,1.1,2.8,3.7-1.4,3.6,5.7-2.5,15.2-2.5s-9.2,7.6-23.2,9.6c-1.6.2,1.5,2.6,8.2,4,7.2,1.5,25.9-13.2,32.9-11.2,3.2.9,6.6-1.6,10.6-2.5,3.9-.9,5.5.6,7.3-5.3,1.7-5.8,4.8-11.4-.7-11.8-5.5-.3-5.9-.3-6.6,5.9-.7,5.8.4,3.8-7.1-5.9-2.2-2.8-3.8-7.3-6.3-9.7-2.5-2.4-3.6,1-7.4,5.3-3.8,4.2-.7,5.8,3.1,7.7,3.8,1.8,6.5,6.5,4.7,7.8-1.8,1.3-3.9-.2-10.9.6-7,.8-6.8-2.2-8.7-3.1-2-.9,3.3-2.9-4.2-5.9-14.6-6-24.8.2-29.8,13.4ZM568.3,364.5c.8-1.3-9.3,5.9-10.9,8.3-1.5,2.3,1.5,1.9,4.6,1.8,3.1-.1,3.7-5.7,6.2-10.1ZM587.7,349.3c-6.7,3,9.5,3.9,7.2-.6-.8-1.7-5.2-.3-7.2.6ZM597.5,332.2c-.4,1.4,0,4.3,1.3,6.7,2.8,5.4,22.1-4,17.8-5.1-8.9-2.5-7-2.3.6-4.7,13.9-4.4-18-2.2-19.8,3.2ZM585.3,331.2c-4.9,2.2,10.3,5.1,9.3,2.6-.5-1.3-3.8-5.2-9.3-2.6ZM601.1,320c-3.8,1.5-4.7,4.3-5.6,5.4-.9,1.1,4.4-.8,6.7-1.4,2.4-.6,2.9.8,5.3-1.2,2.3-2.1,6.9,0,11.1-.9,5.4-1.2,11.7-13.5-17.6-1.9ZM646.3,337.2c5.5,2.1,4.8,5.3,6.3,1.6.9-2.1-.4-1.7-2.8-4.5-8.8-10.4-10.1.3-3.6,2.9ZM650.8,349.8c-1.2.6.6,1.9,1.4,4.3.8,2.5.1,3.3,4.8,3.6,12.3.9,5.3-13.5-6.2-7.9ZM675,353.6c-2.9-2.1-4.3-3.8-7.2-2.6-2.9,1.2-.5,2.7-.5,3.5s3.6-.1,3.6,1.8c.2,5.5-6.2,1.2-10.3,4.3-1.6,1.3,3.2-.2,4.7,1.8,2.1,2.7,5.1,2.1,17.8,0-4.2,4-7.5,8.7-3.8,11.1,2.2,1.4,2.4-1.5,8.4-1.6,5.9-.1,7.7-3.2,7.7-3.2-2-2-.7-6.5-1.2-7.9,3.7,2.6,3.5,4.4,1.7-2.6-2.1-7.7.6-13.1-6.3-12.9-4.5.1-7.6,1.7-11.2,1.7s-5.3.7-2.6,2.1c7.6,3.8,4.7,11.7,5.5,9.7,0-.2-6.1-5-6.1-5ZM649.8,374.4c-.1,1.5,2.5.6,6.6-.8,7.7-2.7-5.8-8.3-6.6.8ZM702.5,368.7c-2,2.2-.2,2.5,4.8,5.1,23,11.6,14.5-27.1-4.8-5.1ZM734.3,342.2c-13.5,1.3-12.5-3.6-31.7-3.6s-1.4,1.2,1.3,5.6c7.2,11.8,15-3.5,23,8,4,5.8,6.2,7.6,2.8,9.8-3.3,2.1-1.8,5.6.2,10,1.9,4.5,6.3,4.3,12.5,4.3,60.4,0,53.9-1.6,66-10.3,9.8-7-6.7-13.7-15.1-13.7s-9.2,2.6-16.8,3.3c-7.5.8-5.9,4.4-12.7,4.5-6.8.2-3.5,3.2-11.9-.3-25.9-10.6-.6-7-5.6-11.3-2.2-1.9-6.1-7-12.2-6.4ZM656.2,310.3c4,1.4,5.1,2.4.6,3.6-4.5,1.2-8,4.4-3.5,3.8,4.5-.6,8.4.4,14.2,1.4,11.3,1.8,6.8,8.4,17.2,5.9,3.9-.9,4.5-1.2,1.9-4-.5-.6-10.6-15.6-18.7-14.7-10.6,1-2.4-8.5-17.2-4.7-4.4,1.1-5.8,4.3-7.5,5.7-3.5,2.8,9,1.8,13.1,3.2ZM709.2,268.3c-14.8,18.5,4,8.6,5,13,.4,1.7-.9,2.9-9,2.9s-5.6,1.8-1.1,7.1c7,8.2,18.5,0,26.8,2.2,18.4,4.7-17.7,6.4-12.2,11.5,17,15.8,16.7,6.4,28.3,7.7,8.4.9,6.4,1.8,7.3-.5.9-2.3,5.5-8.2,6.4-10.4,2.3-5.4,18.9-5.2,9.6-8.6-4.3-1.5-9.2-2.2-8.7-3.4.5-1.2,3.1-4.7,1.3-6.5-1.8-1.8-4.8-1.7-7.2-2.7-2.4-.9-5.1-5.3-8.1-7.2-3-1.9-5.7-2.1-9.4-4.9-14.3-11-17.7-14.1-28.8-.2ZM699.8,318.4c-1.8.9-6.4,1.1-3,3.9,3.4,2.8,2.5,2.9,6.8,1.3,4.3-1.6,10.6-5.7,11.2-6.9.8-1.7-18.5-9.6-20.2-10.1-10-2.7,7.1,10.8,5.2,11.8ZM925,229.3c-7.6-2.1-34.9-7.3-43.7-5.3-8.8,2.1-8.4-4.6-20.6-3-12.3,1.6-31.2.7-37.1,1.6-5.9.9,2.9,3.4,6.1,5.5,3.2,2.1-15.2-2.3-29.2,1.6-14,3.9-23.1,5.9-8.1,11.7,41.4,15.8-6.8,2.1-10.3.7-8.1-3.2-3.7-3-18.9,1.4-15.2,4.3-29.9,6.6-29.2,11.2.9,5.4,20.1,18.7,44.4,9.6,1.2-.5-6.1,6.2-6.1,6.2,23.6-4.8,48.4-14.2,50.6-15.5-16.3,12.6-33,21-53.8,21.7-15.7.6,17.1,14.6,18.7,25.6,0,0-9.6-7.5-20.1,0-21.9,15.7,4.1,11.4,7.4,17.4,1.7,3.2,14-3,14-3-12.3,15.6-16.6,2.6-26.3,3.7-8.6.9-8.1,3-4.4,5.9,10.9,8.8-8.8,5.8-9.3,14.4-.4,5.5,18.6,3.3,34.1,3,9.8-.2,8.6-3.4,12.3-3.4s7.4,1.1,5.9,4.8c-1.5,3.7,1.5,1.4,12.3-2.5,10.8-3.9,5.9-9.8,5.2-11.9-.7-2.1-4.7-2.7-7.1-3.9-2.5-1.1,7.4-11.2,5.9-14.6-1.5-3.4,12-.7,18.2-8.7,6.1-8,3.9-13.9-.5-15.3-4.4-1.4,8.1-.5,12-2.8,3.9-2.3,12.5-5,16-9.4,3.4-4.3,4.7-5.9-3.7-5-8.4.9,12-3.7,21.8-10.1,34.6-22.5,25.3-16.5,16.7-16-11.5.7-25.3-.9-17.7-1.8,7.6-.9,30.2-3.7,36.1-8,5.9-4.4,8.6-5.7,8.6-5.7ZM787.6,387.9c-12.3-1.1-30.2-4.1-33.9,6.4-3.7,10.5-9.3,33.8-9.8,38.2-1.4,12.1,55.2,13.9,49.6,9.8-9-6.6,20.1.4,20.1-7.5s1.7,2.5,8.6,6.2c6.9,3.7,12.8,14,18.9,19.9,6.1,5.9,19.9,13.9,17.2,18.5-2.7,4.6,2.9,20.6-18.2,24.2-21.1,3.7-22.3,1.1-22.1,5.9.8,16.4,27.8-2.1,33.4,5,8.5,10.9,22.5,6.3,6.6,11.9-2,.7,4.2,1.4,16.2,7.1,12,5.7,26.5,6.4,19.4,2.3-7.1-4.1-10.5-11.7-13.7-14.2-3.2-2.5-.2-.5,5.4.9,14.1,3.4,14.7,17.9,18.6-.7,1.7-8-.7-8-10.3-14.4-25-16.7-8-22.3-6.1-24.7,2.5-3.2,9.3,5.7,14,11,4.7,5.3,8.6,14.4,12.3,7.8,3.7-6.6,7.1-21.5,7.1-24.9s-3.7.2-19.4-7.5c-15.7-7.8-23.8-10.7-25.3-10.7s4.2-3,11-6.4c6.9-3.4,9.8-3-4.9-16.9-14.7-13.9-18.9-16.9-28.5-17.8-9.6-.9-12.3-11-19.1-14.4-6.9-3.4-22.8,4.1-27.5,5.3-4.7,1.1-3.2,3-9.1-5.5-5.9-8.5-10.5-14.6-10.5-14.6ZM798.6,387.9c-6.1.7,3.7,11.9,11.5,12.4,7.9.5,14.5-3.4,16.2-3.9,1.7-.5-18.2-9.6-27.7-8.5ZM771.1,501.3c-4.6,11.2-2.6,11.6-5.9,22.3-.9,2.9,2.9-.5,5.5,3.8,2.6,4.3,1.5,5.5,6.1.5,4.6-5,9.8-6.7,16.2-4.6,21,6.7,1.5-7.7-.4-9.9-4.4-5.3-7.7-6.7-13.2-8.7-5.5-2.1-6.1-8.6-8.3-3.3ZM780.3,892.9c-4.4,1.5,4.1,2.2,9.8,0,5.7-2.2,10-.5,10.8.5.8,1-1.9,1.6-2.9.6-1-1.1-1.2,2.7,5.3,5,12.7,4.6,6.5,6.2,10.7,12.7,1.5,2.3,2,3.3-.7,4.3-4.2,1.6,6.8,5.4,11.8,5.8,5.6.5,7.5,1.5,3.6-3.6-16.6-21.9-15.5-36.4-48.4-25.3ZM835.2,926.9c3.1,3.2,2.2,6.7,2,8.5-.4,3-23.4-6.6-9.6.8,5.4,2.9,8.8,2.2,8.6,6-.2,3.9,4.9.4,7.2-1.9,2.3-2.2,2.1-.3,11.6,1.2,9.5,1.4,11.5,3.2,10-1-1.5-4.2,4.4-3.8-4.1-7.8-8.5-4-29.2-9.5-25.7-5.8ZM808.1,929.3c-7.2-8-12.3.5-3.6,2.9,3.3.9,5.9-.4,3.6-2.9ZM877.3,946.5c-3.9-1.3-4.7,1.6-2.1,4,2.6,2.4,23.5,3.3,2.1-4ZM832.5,468.1c-5.2,2.2-8.2,3.7-3.7,9.6,4.5,5.9,7.2,9.6,8.9,5.3,1.8-4.3,3.5-18.6-5.2-14.9ZM791.2,531.6c-7.8,1.3-10.3,1.5-9.1,5.8,2.6,9.1,23.5-8.2,9.1-5.8ZM807.4,538.2c-3.3,1,1,14.3,6.5,1.9,1.5-3.3-1.6-3.4-6.5-1.9ZM722.4,327.2c-7.4.2-18.4,2.8-12.3,3,9.9.2,31.8,4.3,32.3-5.3.2-4.8-6.5,1.8-20,2.3ZM676.4,286.9c-7.5,2.3-5.7,3.9,3.2,7.8,8.8,3.9,9.1,2.1,8.1-5.3-1-7.3-6.9-3.9-11.3-2.5ZM1201,478.2c-9.3,2.6-12.4,1-14.2,5.8-1.8,4.7-5.4,2.2-7.5,2.8-2.1.6-5.1,13.7-6.5,11.8-5.8-7.7-3.9-11.8-7.5-16-4.1-4.8-12.2-4.2-12.7-2.3-.6,2,5.6,3.6,3.5,5.8-3.4,3.5-18.1,10.4-1.9,6.6,3.5-.8,5.9,2.6,7.3,5,1.4,2.4-1.6,4.8-3.1,6-3.4,2.7,15.3-2,9.9,7.1-1.8,3,7.8.4,13.1.1,5.3-.3,6.7,3.6,14.7,1.1,8-2.5,11.9-2.3,19.2-7.8,14.7-10.8,15-6.8,15.5-16.1.2-3.9,3.2,1.1,2.1-4.8-1.1-5.9-7.1-4.3-11.3-4.7-4.2-.5-4-3.7-6.1-4.8-2.1-1-4.9,1.7-14.3,4.4ZM1822.5,981.8c-2,6.8-3.6,26.3,6.7,21.5,7.4-3.4,4.3-8.3-1.5-18.2-1.5-2.6-4.5-5.9-5.2-3.3ZM1820.2,977.5c.5,2.2,3.5,3.2,1.8.9-.9-1.2-.8-1.3-.8-1.3,0,0-1.1-.4-1.1.7M2085.2,1160c-1.2,4-13.8,5.2-18.6,6.7-8.8,2.7-24.1,11.7-25.2,15.6-.8,2.7.4,6.8-4.1,1-4.8,9.7.8,13,.6,21.4-.2,5.5-2.2,8.7-2,12.5.2,5,10.4,14.3,11.8,26.8.9,8,5.2,12.5.9,16.8-4.2,4.3-7.4,3.4-2.2,7.9,17.2,14.9,21.3-4.1,43.4-5.5,18.7-1.2,5.6-4.4,17.5-10.3,5.5-2.7,5-3.4,8.7-4.1,3.7-.7,6.1,1.9,11-2.1,5-3.9,1.3-4.3,12.3-4.3s27.1,2.7,32,10.5c6.3,9.7,3.8,6,18.8-4.5-.6,9.3-3.7,6.5-3.7,13.5s4.2-3.3,4.8-3.4c.6-.2,1.1,7.5,1.7,8.2.6.7,2.2.3,3.9,2.6,5.7,7.6,8.4,15.9,18.6,17.5,17,2.7,13.7-5.3,18.6-3.1,3.5,1.5-.2,4.8,8.1,4.1,8.3-.7,10.5-3.4,13.8-5.7,3.3-2.2,3.7,3.1,7.9-2.7,4.2-5.8,5-4.5,5.7-11.5,2.1-19.6,8.6-14.9,12.3-28.3,5.6-19.9,7.7-22,4.2-38.9-1.8-9.1-.6-8-6.4-11.8-5.9-3.8-7.4-2.8-8.8-8.1-1.5-5.3.4-6.9-2.4-6.9s-5.2,1.2-6.8-2.4c-6.3-13.7-6.7-9.4-16.4-13.7-5.7-2.6-2.8-3.3-2.8-7.7s.3-9.2-4.2-11.3c-4.5-2.1-1.8,1.1-1.8-6.2,0-16.3-4.9,5.7-17.4-27.9-1.6-4.3-7.5,7.6-7.5,13.9s6.8,12.8-4.8,28.2c-4,5.3-9.6-4.8-14.2-7.1-4.7-2.3-13.2-4.3-17.2-7.9-3.9-3.5-1.2-3.7,0-7.3,3.8-11.4,12.5-9.8,4.3-14.4-4-2.2-25.2-4.4-24.7.9.4,3.5,4,4.9-1.2,3.9-21.5-4.2-14.1,16.1-18.2,16.1-7.7,0-14.3-10.4-21.8-3.4-27.7,25.7-21.5,10.5-28.4,32.1ZM1921.4,1005.5c-2.6-.4-4.1-1-.9,3.1,12,15.5,10.5,3.9,13.6,11.2,2.3,5.5,1.5,5.6,3.8,7.7,2.3,2.1,4.3,2.6,4.9,4.7,3.6,12,4.7,3.7,8.3,13.9,6.7,18.5,11.5,16.2,17.1,23.3,3.6,4.6,9.6,11.2,10.6,9.4,2.1-3.9,5.9,6.4,9.1-10.4,2.4-12.6-7.1-11.6-8.6-14.1-.9-1.4-2.3-6.1-4.4-7.5-2.1-1.5-2.6.1-2.6-3.5,0-6,4.2-.3-5-9.9-.5-.6-14.4-5.7-21.7-13-12.9-12.8-9.5-12.8-24.2-14.7ZM1992.9,1079.2c-2.9,0-4.4-1.7-6.4,1.8-2,3.5-1.7,3.5,1.4,3.5s2.5,1.6,2.3,2.1c-.2.7,11.5,5.8,17.2,2.7,1.7-.9,2.3,2.3,10.9,3.7,8.6,1.4,13.1-.8,18.6.6,10.2,2.5-2.3-8.3-19.3-11.3-2.6-.5,2.2,2.7-5.6,1.7-7.9-1-5,.7-9.1-1.9-4.1-2.6-4.1-3.1-6.8-3.5-2.7-.5-3.3.7-3.3.7ZM2055.2,1091.7c-16.3,5.1,13.3,4.4,15.3,1,.9-1.4-1.1-.5-3.8-1.3-2.7-.8-2.5.6-6.1,1-3.7.5-5.4-.8-5.4-.8ZM2078.1,1091.3c-9.1,1.1,4.6,4.4,8.8,3.3,6.3-1.7-1.6-.9,17.9-3.3,7.4-.9,1.6-1.2.9-1.1-13,.6-13.7,2.5-15.8,2.4-1.1,0-8.9-1.6-11.8-1.3ZM2102.6,1096.9c-5.2,2.3-1.9,5.1-3.4,6.8,0,0,4.5-.2,7.9-3.6,6.5-6.6,7.1-2.5,14.5-9.7-5.2,1.1-8.3-1-12.8,2.7-1,.8,1,1-6.2,3.8ZM2070.4,1098.1c-.2,1.4-2.8,1.3,1.7,3,4.5,1.7,8.8,3.9,8.5,1.6-.5-3.8-9.7-7.7-10.2-4.6ZM2047.6,1003.4c-1.8,2.6,1.7,1.9-1,4.2-2.7,2.3-4.8,1.3-7.5,4.7-5.9,7.5-26.1,13.4-17.3,18.3-1.9.9-9.2-1.6-9.6-4.1-2.6-.1-8.3,7.5-4.1,11.3,2.8,2.5-2,2.6-1.3,4.3.6,1.7.6,4.9,2.3,5.3,1.7.3,2.1-1.6,4.2,1,2.1,2.6.4,10.1,3.1,10.4,2.7.3,4.7-.8,7,.2,6.7,2.9,9.4-1.4,15.1,1.8,1.6.9,7.4,2.9,10.2,2.6,2.8-.2,3.3.5,3.8-3.5,1.9-15.1,6.8-9.8,7.4-16.8,1.4-15.4,5.7-7.2,6.8-9.4,1.1-2.3,2.2-2.3,1.6-3.4-.6-1.1-3.8-1.1-5-3.3-1.2-2.2.4-3.3-1.1-7.8-1.5-4.5-2.3-2.7-.2-5.3,2.1-2.5,3.8-3,4-4.9.3-2,1.1-2.1,3.7-3.9,2.6-1.8-.4-1-2.9-2.8-8.3-6.2-7.2-16-19.1,1ZM2410.3,1246c-2.9-2.1-.1,5,5.2,5.4,2.3.2,1.6,5.8,7,11.6,1.9,12.8-2.2,12.4-3.2,17.3-1,4.4,8.1.2,6,6.4-.9,2.5-3.4,3.7-3.4,4.1s5,3.3,7.6.2c12.6-15.2,5.2-12.4,9.3-15.2,5.4-3.7,9.3-9.8,6.6-11.9-3.2-2.4-4.7,5.8-12.2,2.2-6-2.9-2.4-3.1-6.3-7.1,0,0-.7,3.9-2.6,2.6-1.8-1.3-1.4-2.6-2.7-4.8-3.9-6.3-1.8-9.1-6.6-9.6-4.3-.5-3.7-.3-4.8-1.1ZM2411,1287.5c-4.4,3.8-8.3,9-11,15.3-2.5,5.9-16.5,9.4-20.5,15.3-8.8,12.8-15.4,14.9-2.2,14.9s11,3.9,14.7-.1c3.7-4,7.4-13.5,9.7-16.9,2.5-3.7,18-15.5,18-19.9s-1.6-6.3-1.6-6.3c0,0-1.4,2.6-4.5,2.3-3.2-.3-2.6-4.6-2.6-4.6ZM2382.1,1331.4c-4.3-2.3-5.2,2-5.9,6.3-.7,4.4,1.9.7,5.6-1.3,3.8-2,1.9-4.1.2-5ZM2236.1,1301.5c-8.5-2.8-1.8,24.3,11.7,18.1,2.7-1.3,12-14.5,10.8-20.5-.5-2.4-3.9,2.2-6.1,3.2-11.6,5.4-11.7.7-16.3-.8ZM2175,1056.1c-9.8,2.3-5.2-20.2-22.8-13.7-8.1,3-6.9,2.3-1.5,4.3,5.4,2.1,6.1,2.7,6.9,2.7s8.6,1.1,6.9,2.3c-1.7,1.1-9.1,2.3-4.4,5.5,4.7,3.2,2.7.9,15,7.1,12.3,6.2,14.2,1.6,18.2,9.6,3.9,8,3.9,6.6.7,8.7-7,4.5-11.1,4.7,7.6,5.7,8.4.5.5,5.3,9.8,5.3s11.8-3,15.5-7.3c3.7-4.3,4.4-2.1,12.3-.2,7.9,1.8,10.6,8.7,20.4,11.4,9.8,2.7,14,6.4,7.9.7-45.1-42-21.6-36.4-74.9-51.2-11.5-3.2-13.5,8.2-17.4,9.1ZM2103.6,1032.5c-2.8-1.7-2,3.6-8.1.7-6.1-2.9-8.4-4.3-15,.6-6.6,4.8-2.4,6.8-2.6,10.2-.3,7.2-11.6,18.3-7.9,23.8,1.5,2.3,3.7,1.4,4.6,2.6,4,5-7.9,18.8,5.3,15.8,3.8-.9.5-1.1.5-4.3s1.8-.4,1.8-18.9c2.5-1.3,4.9,7.4,7.5,11.8,3.2,5.4,4.3,4.9,11-1.3-9.9-3.1-1-3.3-6.4-12.1-3.5-5.7-5.3-6-.9-6.3,6.3-.4,2.6-8.1,13.1-6.8-6.6-6.8-23,8.7-24.3,1.6-3.1-17.2,3.3-9.6,9.2-11.2,12.5-3.6,21.2,7.4,28.7-13-13.7,11.5-12.2,9.5-16.5,6.8ZM2131.1,1020.8c.8-1.4-6.4,4.9-7.7,6.2-1.4,1.3,0,3.1,1,4.9,2.9,5.4-2.8,9.4,5.2,12.1,0,0-.1-4.2,1.2-6.2,1.5-2.2-1.9-13,.4-17ZM2109.2,1060.5c0,2.9-.6,4.4,5.4,4.4,19.8,0-5.4-13.6-5.4-4.4ZM2126.1,1063.9c.8,2.7,1.7.9,4.9.3,4.6-.9,2-6.9,18.8-.6,5.2-6.2-28.5-15.6-23.7.3ZM2015.9,911c-10.7.3-4.9-.4-10.7,3.2-1.4.9-1.4,2-.4,4.3,1,2.2,2.6,2.3,5.4,3.1,2.8.7,1.8-1.2,3.8-1.9,3.1-1.1,1.2-2.6,5.3-7.2.5-.6-1.6-2.5-1.6-2.7s-1.7,1.3-1.7,1.3ZM2082.4,918.9c-3.1-2.3-5.5,11.8-4.3,14.2,3.1,6.1-3.2,0-2.6.5-4.5,14.3,6.3,8.4,7.2,13.7,1.3,6.7,6.7,3.2,9.2,7.3,1,1.6.5-4.2,2.2-3.9,3.6.7,4.8,6.3,8,6.5,0,0-2.8-4.7-1.6-5.3,1.2-.6,1.6-1-1.6-3-5.9-3.6-10.4.7-12.5-4.9-1.8-4.8-.4-7.8-.4-8.8s1.3,1.6,2.8-1.7c1.5-3.3,1.8-5.9,1.6-9.1-.2-3.2,2.2-4.5.4-4.6-1.8-.1-7.2,0-8.5-.9ZM2111.6,980.3c.4,2.3-2.2-.6-3.2.7-1,1.3-1.5,1.1-3,1.7-4.1,1.7-6.3,7.3-5.3,1.4,0-.5-1.1-3.2-2.3-1.4-1.1,1.8-2.3,3-4.8,4.2-4.6,2.3-5.9,7.8-2.9,7.7,4.3-3.3,1.3-5.6,7.8-6.4,8.6-1,.2,10.1,7.2,12.5,3.2,1.1,1.7,0,4.6-.2,7.2-.6-3.5-5,3.2-8.9.6-.3,1,1.7,1.8,3.9,2.4,6,4.5-13.5-.2-16.8-4.7-3.4-4-5.3-2.9,1.5ZM2097.4,966.4c0-2.2-5.2-7.4-9.4-8.2-10.9-1.9-6.8,9.3-.8,10.2,3.4.5,5.5-1.3,5.5-1.3.3.7-10.2,6.5-4.1,10.2,2.5,1.5,2.5,3.8,3.9,2.7,1.5-1.2,2.5-5.2,5.5-8,3-2.8,3.2-3.2,3.6-6.2,1.1-8.4,0-5.3-4.3.5ZM2104.1,959.9c2.2,2.1,4.2,2.6,4,4.2-.7,4.3-7-2.5-2.4,4.8,1.3,2.1.9,6.7,2.3,5.1-.9-14.5,2.3-4.7,3.1-7.2,4.2-11.8-10.2-10.1-6.9-6.9ZM2072.6,965.9c-2.6.6-.2,4.9-6.2,10.8-11.5,11.2-6.7,7.7-3.8,6.3,3.8-1.8,6.9-4.2,7.3-6.6.5-2.4-.4-.9,2.9-2.5,3.4-1.6,1.7-2.1,1.8-4.6.1-2.5-.3-3.9-2-3.4ZM2275.9,1059.5c-.5,3.6,2.5,7-11.4,9.3-1.4.2-11.4-2.5-7.8,1.5,6.7,7.4,13.5,1.5,21.2-.8,9-2.8-1.4-14.3-2-10ZM2291.8,1066.4c4.2,6,2,6.3,10.6,9.1,2.4.8,0-.9-1.8-3.3-1.8-2.4-1.9-3.7-4.5-6.1-2.6-2.4-7.1-3.7-4.3.2ZM2084.5,874.2c-7.9,5-11.4,4.6-8.3,11,6.3,12.7,6,13,9.7,4.4,2.2-5,2.4-11.6,3.3-13.6.9-2-2-3.5-4.7-1.8ZM2219.2,627.6c3.5,13.4-2.4,4.6-4,17-2,15.4,1.2,5.8,1.2,17.3,0,19.9-2.9,13.9-2,21.4.5,3.9-.4,20-.1,23.1.3,2.3,1.5-1.1,2.3-1.9,4.4-4.1,13.8,10.3,6.8-4.8-4.1-8.7-4.8-6.9-3.7-14.7,1.1-7.9,1.7-8,5.9-8.8,5.6-1.1,9.8,13.5,5-.9-5.1-15.6-3.6-20.5-7.7-23.4-5.8-4.2,5.6-2.6-1.5-26.7-.6-2.1-3.1,1.3-3.1,1.3l.9,1.4ZM2215.5,715.1c.2,2.5.5,4.8-1.2,7.6-1.7,2.9-.5,3.5-1.5,7.5-1,4-5.8,0-5.8.8,0,9.9-12.1.3-2.7,18.2,3-2.7,3-2.5,5.9-3.3-.8-2.5-7.3-2.5-5.2-7.1.4-.8,3.8.2,6,0,9.7-1,3.9,1.8,13.4,3.8,0,0,.5-3.2,1.7-5.5,1.2-2.3,15.9-2.3,13.4-5.4-1.2-1.5-1.1-4.8-1.9-7.3-.7-2.5-3.1-.1-4.9.8-8,4-18.2-19.1-17.3-10.2ZM2202.1,759.6c.3,3.3,3.1-.3-.6,10-3.7,10.3-5.5,12.6-9.1,15.3-3.6,2.7-6.9,2.7-8.3,2-2.8-1.4,6.4-5.8-3.5-4.4-1.7.3,0,2.2-.3,3.9-.2,1.6-3.6,6-3.2,8,.4,2,.4,2.6-1.8,3.3-2.2.7-3.7-1.6-4.3-2-.6-.3-4,.6-8.3,1.2-4.3.6-5.4,2.1-7.3,5.2-1.8,3.2-6.2,3.7-9.3,4.9-3.1,1.2-1.9,5.7-5.3,7.2-3.4,1.5-3.4,4.4-3.7,6.7-.3,2.3,2.1.7,2.5.5.4-.2.4-3.3,2.5-2.9,2.1.3,2.4.4,1.3,2.8-3.8,8.3-4.5,6.2-.8,10.7,1.7,2,3.2-.6,6.7-4.3,3.5-3.7,3.8-4.5,3.5-8.7-.6-9-9.7-2.8-4.5-8.7,2.8-3.3,4.1,0,6.1-1.5,1.9-1.5,6.6-1.4,11.1-2.5,9.9-2.5,9.1-3.8,10.8,6.3.2,1,3.1-1.5,6.2-2.6,3.7-1.4-3.1-3.7,1.3-6.7,2.6,5.4,11-2.5,13-2,1.3.3,2.1,1.6,4.1.3,2-1.3,2.4,0,2,.9-.4,1,5.9-2,7.3-2.9,2.1-1.4-2.3-7.2-1.2-12.2,1.5-7,.2-10.8,3.1-11.5.7-.2.7-4,2.3-6.1,1.6-2.1,1.2-3,1.2-7.7s-4.9-2.7-2.1-13.8c-6,2.3-5.8,3.2-6.4,4.4-.8-.8-5.6-.7-5,6.9ZM2170.2,804.1c-13.8,2.3-16.8,2.6-15.9,8.2,1.9,12,3.2,8.8,7.5,6.5,3-1.6,2.8-6.3,5.7-6.3s1.8,3.4,5.7-1.4c3.9-4.7.9-5.1,1.1-7.5.1-2.4-4.1.4-4.1.4ZM2506.1,550c-1.7,6.6,7.7,2.9,11.5,5.7,5.8,4.3,10.2,1.1,10.7.5-1.7-.9-21.1-10.3-22.2-6.2ZM2444.3,462.5c.5,5.2,1.7,5.8,8.5,4.9,5.8-.8,19.3-1.1,22-2.9-5.3-10.6-9.5-3-18.8-4.5-12-2-12.1-1.8-11.7,2.6ZM2252.8,390.7c3.3,1.6,5.9.9,12.9.2,7-.8,7.6-3.8,8.4-5.5,1.3-2.8-17.7-1.8-18.2-2.1-1.7-.9,2.5-1.7-1.7-3.3-4.2-1.5-5.2.5-6.1-.2-.9-.7-1.1-2.2-3.1-2.3-1.9-.2-12.6,3,7.8,13.1ZM2204.2,393.2c-3.2,1.3-2.9,2.4.6,5.4,3.6,3,2.4,2.3.8,4.5-1.6,2.1,0,0,5.2,2.2,5.2,2.3,7.3,6.5,10.5,7.5,3.2.9,5.4-.3,5.4-.3-4-12.4-13.3-11.7-14.9-16.5-1.2-3.6-3.1-4.6-7.6-2.8ZM2237,376.4c-13.9-8.4-19.4-12.6-23.9-13.3-4.6-.7.6,9-8.2,4.7-13.4-6.6-11.6-8.7-21.5,1.1-4.3,4.3-1.8,5.5,3.4,11.8,10.3,12.4,13.3-.5,17.9,1.3,3,1.2,13.5-1.2,13.9-1.2s-.6,5.8,4,4.3c4.6-1.5,8.8-2.3,11-4.6,2.1-2.3,3.6-4.1,3.6-4.1ZM1918.2,253.9c-1.3,1.1-9.2.5-13.3,6.8-4,6.4-6.9,1.9-9,5.8-10.5,19.7,8.9,6.1,18.4,19.2,3.8,5.3,6.6,5.3,15.8,6.7,9.2,1.5,5,2.8,9.8,2.3,4.8-.5,11.4.6,9.9-1.8-6.3-10.3,3.9-12.5-2.1-16.1-5-3.1-8.6-.6-8.3-1.1.3-.6,4.5-2.3,2.8-2.4-13.9-.9-13.9-9.5-7.1-10.9,4.3-.8-16.5-12.4-15.2-11.7-3.1,1.6-.5,1.9-1.8,3.1ZM1947,305.7c-2.6,2.1-1.8,2.6,2.3,4.1,4.2,1.5,11.5-2.6,13.6-2.8,2.1-.1,3.7,3.1,10.3,2.3,6.6-.8,16.7-2.1,11.8-5.6-9.1-6.5-13.6-10.5-20.9-10.9,0,0,11.2-3.8,8.5-4-18.4-1.6-11.7,5.6-25.7,16.8ZM1680.6,232.2c-6.4,2.3-4.2,3.4-8.4,6.8-4.2,3.3-1.4,4.2,7.6,2.1,30-7.3,12-12.8.7-8.8ZM1694.9,248.3c-6,2.7-4.4,5.5-2.8,7.8,1.6,2.3,6-1.4,7.2,1.1,1.2,2.5,1.6,1.5,7.3-2.3,5.6-3.8,3.6-2.6,1.4-6.6-2.2-4-2.7-4.6-13,0ZM1661.3,246.7c-3.9,1.8-3.9,1.6-.2,3.3,3.7,1.7,12.6,3.1,17.2,0,4.6-3,4.2-2.4-1.6-3.3-5.8-.9-11.1-2.2-15.5-.2ZM1604.4,253.6c28.1-2.4,19.3,4.4,10.5,5.3-8.8.9.8,2.3,7.1,2.1,6.3-.3,2.2-5.4,7.5-7.2,5.2-1.8,8.6-.7,14.8-2.9,6.3-2.2-3.6-4.4-10.9-4.2-7.3.2-9.7.6-15.8.2-6.2-.4-11.1,2.3-17.5,3.4-13.1,2.2-1.7,3.9,4.3,3.3ZM1651.4,255.3c-5.3,0-17.9,2.9-7.3,3.9,22.9,2.2,16.9-3.9,7.3-3.9ZM1688.6,257.5c-13.8-4.6-24.2,1.6-17.8,4.2,4.7,1.9,15.8.3,10.4-1.8-2-.8,11.8-.9,7.4-2.4ZM1720.1,248.2c-5.7.7-6.1,1.7-6.6,3.6-.6,1.9.8,1.5,6.9.7,22.3-2.8,12.1-9.9,12.1-12.1s-5.6,2.8-7.2,4.2c-1.6,1.4,1.6,2.8-5.2,3.6ZM1269.3,577.1c-2.9,8-7.7,11.7-2,9.5,5.6-2.2,11.3-9.1,11-3.2-.3,5.9-5.8,5-4.1,10.8,1.7,5.8.4,5.3,9.8,7.4,9.4,2.1,1.7,1.4,4.1,6.9,9.9,23.7-16.6-8.6-5.9,15.5,1.7,3.9-1.2,6.2-6.7,8.7-5.5,2.6-.7,4.2,3.5,3.9,4.2-.2,14.8-2.2,13,1.5-1.7,3.7-6.8-.6-10.4,5.5-3.6,6.2-17,11.4-10,11.1,7-.4,5.9-2.2,26.7-5.2,24.9-3.6,37.7-11.1,21.7-8.5-7.5,1.2,4.9-7.4,3.2-15.4-1.7-8-6.7-.4-9.9-5.4-3.2-5-2.8-6.5,3.3-4.7,6.1,1.8,5.5-1.2-6.2-8.7-11.7-7.5-4.5-6-9.8-12.3-5.4-6.3-14.5-5.5-14.5-5.5,4.5-2.7,9.3-11.8,11.4-16.6,4.8-10.7-18.7,1.5-15.6-4.2,3-5.8,12.6-12.1,3.2-10-21.9,5-11.7,7.6-15.8,18.8ZM1254.6,595.9c-9.5,3.7-6.8,6.2-5.2,7.5,1.6,1.4,4.5-1.2-4.3,3.8-8.8,5-9,10.6-4.3,11.7,4.6,1.1,4.1-2.7-.9,6.5-14.8,27.6,14.4,5.7,19.2,5,4.8-.6,5.6-4.4,5.6-10.2s-3.2-5.9.6-10.7c3.8-4.8,4-9.8-3.3-12.2-7.4-2.3-1.4-3.8-7.4-1.5ZM1373.5,725c-.5,1.3.6,4.8-3.2,7.2-3.8,2.4,1.8,4.6,3.1,6.9,2.1,3.9,4.3-24.9.1-14.1ZM1371.7,743.9c-6.2,3-6.6,5.1-7.4,9.8-.7,4.7,5,.9,3.6,5-1.5,4.1-.1,6.3,6.4,2.4,6.5-3.9,2.8-7.4,3.8-12.4,1-4.9,1.8-8.8-6.4-4.9ZM1467.9,794.4c-5.5-.5-7.9,2.9,1.5,3.9,9.4,1,13.6,1.2,17.1.3,3.5-.9.5-.2-4.1-3.3-4.6-3.1-7.5-.3-14.5-1ZM1520.2,797.4c-7.6-1.6-5.5,7.6,2.2,6.2,7.7-1.4,4.8.5,8.3-5.1,3.5-5.7-2.6.7-10.5-1ZM1332.2,754.8c-6.1.8-6.6,2.9-1.8,4.1,4.8,1.3,4.2-.2,6.9-2.2,2.7-1.9-2.3-2.3-5-1.9ZM960.3,642.9c-12.1,9.6-12.6,19.8-23.4,30.9-5.2,5.3-2.6,4.1,13.4,7.2,16,3.1,14.7,5.5,18.4,4.5,3.7-1,4.4,2,4.4,5.3,0,5.5,12.3-4.1.2-23.5-3.3-5.3-4.1-5.3-9.2-3.9-5.1,1.4-3.5-1.2-5.3-5.3-1.8-4.1-4.8-.9-.4-7,4.4-6.2,5.5-11,1.8-8.1ZM470.3,631.9c0,5.1,5.4,13.8,9.4,16.7,4,2.8,3.2,1.3,1.4-4.8-1.8-6.1-.4-6.1-1.2-9.9-.9-3.9-9.6-3.8-9.6-1.9ZM520.1,675.2c11.3,3.3,5.7-6.7-2.8-8.7-6.9-1.6-8.3-1-11.8-3.2-19.2-12.1-1.3,7.3,14.6,11.9ZM347.5,603c-9.5-2.2-13.9,4.3-11.4,8.3,1.7,2.7.6,1.2,4.5-1.5,3.9-2.7,2-3,6.9-4.2,4.9-1.2,3.9-2.8,3.9-2.8,0,0-1.2.8-3.9.2ZM346,597c-3,1.8-4,3.3-.6,2.6,3.3-.7,2.8-2.6,5-2.1,6.5,1.3,0-3.1-4.3-.4ZM261,583.4c-4,2-7.9-.3-5.4,1.2,2.5,1.5,5.9,2.9,8.6,2.6,6.8-.8,2.3-1,2.2-4.6,0-1.8-1.3-1.2-5.3.8ZM1619.8,1142c-4.7,10.3-14.5,5.3-22.3,12.8-7.9,7.5-6.6,5.3-.7,15.8,5.9,10.5-4.9,9.4-7.6,21.7-2.7,12.3,3.2,10.1,6.4,20.6,3.2,10.5,4.7,7.3,10.6,5.9,5.9-1.4,10.1-4.1,10.1-4.1,1.9-17.6,10.8-37.5,12.3-54.9.7-8.9,1.5-15.3,3.4-12.6,4.9,6.8,1-17.3-3.9-21-6.6-5-3.4,5.5-8.1,15.8ZM1626.6,438.9c-6.4,1.5-9.5,5.4-4.8,6.9,4.7,1.5,4.2.7,12-2.1,7.7-2.7-.8-6.3-7.2-4.9ZM1746.9,322.1c-2.2-3.4-4.2,1.1-26.7,11-22.6,9.8-22.3,1.4-43.5,18.1-21.1,16.7-16.4,14.6-17.7,24.7-1.2,10.1-6.1,5.7-8.1,14.9-2,9.1-12.8,9.6-7.4,17.2,13.9,19.4,43.6,17.4,35.8,13.7-2.5-1.1-11-14.6-9.3-29.9,1.7-15.3,7.4-13,12.3-18.7,4.9-5.7,17.7-20.6,26-25.6,10-6,41-15.2,41.5-15.8,8.6-9.6-.7-5.9-3-9.4ZM1686,424.8c-2.7.4-3.9.5,1,5.3,4.9,4.8,9.2,8.5,7.6,2.1-1.6-6.4-6.1-7.7-8.6-7.3ZM1766.7,378.3c-10.8-5-7,4.8,2.5,6.6,4.8.9,1-5-2.5-6.6ZM921.6,666c-16.2-8.1-21.4-5.4-8,1.9,5.7,3.1,11.2-.3,8-1.9ZM908.6,689c.3-4.5-3,5.2,1,7.4,4.1,2.2,6.2,2.7,8.7.1,2.6-2.6.5-1-3.1-1.6-3.6-.6-6.9-2.1-6.7-5.9ZM2505.2,530.3s-.4,5.3-2.4,7.9c-4.9,6.2,7.2,7.5-11,1-3.9-1.4-7.4-.2-9.6-6-4-10.5-20.5,1.5-17.7-11.5-13.3.7,4.9,10.4-26.5,14.2,11.7,8.4,8.4,11,14.6,20.1,0,0-.7,2.2-10.5.3-9.8-1.9-9.2,1.9-19.7,6.2-37.5,15.3-18.5,16.7-37.7,12-9.2-2.2-11,2.6-13.4,3.8-2.4,1.2-1.5-5.5-1.5-5.5,0,0-3.3,0-7.4,2.1-42,21.3-13,20.2-14.4,24.5,0,0-4.4,16.6-4.4,16.6-6.2,18.4-10.4,8.7-15.6,23.3-20.2,56.4-32.5-34.5-23-38.9,41.2-19.2,3.9-2.7,42.5-29.1,12.5-8.6,5.7-13.7,8.5-16.1,4.9-4.3,13.2-2.5.4-3.8-6.8-.7-7,.9-12.3,6.7-5.3,5.8-9.6,6.9-8.5,2.4,1.1-4.5,1.3-9.1-2.8-6.7-8.1,4.8-22.6.9-35.7,17.3-6.8,8.6-2.9,7.5-.7,9.6,2.2,2.1-10.9,1.5-17.1,1-6.3-.5-3-1.7.7-2.9,3.7-1.2-5.5-2.2-13.6-3.9-8.1-1.7-5,1.4-9.7,3.3-4.8,1.9-4.6-1.7-7-2.2-2.4-.5-13.1-1.2-20.6-2.1-7.6-.8-7,.5-9,3.1-2,2.6-16,14.9-22.1,22-6.1,7-13.6,8.6-20.4,15.1-6.8,6.5-7.9,6.2-2.4,7.2,5.5,1,6.3.5,7.2,5.6.9,5.1,3.5,6.9,9.4,6.9s4.2,1.5,5.3-2.9c1.1-4.5-1.5-9.6,3.5-5.7,14.5,11.5,12,15.4,7.5,31.7-9,32.7,3.6,9-17.1,49.4-1.9,3.7-28.7,39.7-35.9,26.4-2-3.8-3.5-3.1-8.3,1.2-4.8,4.3-7,6.9-8.8,13.7-2.8,10.3-17.7,11.8-12.3,21.8,5.6,10.4,14.5,16.8,4.2,35.2-2,3.6-11.6,5.3-11.4,3.6.2-1.7.4-10.3,0-15.3-.4-5-4.1-5-2.8-6.5,1.3-1.5,6.6-4.1,2.8-7.7-3.9-3.6-6.6-.5-8.3-4.8-2.5-6.4,5.3-11.7-9.6-13-5.7-.5-7,5.1-8.3.2-1.3-5,.6-5.5-2-7.5-2.6-2.1-4.8-.7-11.4,5-8.5,7.3-21.4,7.1-17.7,12.5,12.2,17.7,10.1,9.3,22.3,9.3s2.6,4.9-7.2,14.7c-10.2,10.2-2.3,2.8,5.9,20.9,3.6,7.8-5.5,14.6,3.5,24.3,3.9,4.2,3.7-1-11.4,29.3-7.1,14.1-25.4,24.3-39.4,26.9-21.4,4-17,7.2-17.7,10.3-.4,1.7-3.5.2-3-2.4,1.7-7.6-8.4-7.8-13.6-2.7-5.3,5.1-11.8,5.5-14,12-2.2,6.5-1.8,4.3.6,7,2.4,2.7,14,13.9,16.7,19.9,6.7,14.5,5.1,25.6-15.6,39.4-15,10.1,2.6,4.3-13.1-12.9-4.2-4.6-17.1-8.4-19.5-8.9-2.4-.5.9-4.3-.7-4.1-1.6.2-5.5-.9-5,5.1.5,6-3.9,4.1-4.8,10.1-.9,6-2,12.2,1.8,11.7,3.9-.5,3.1,5.3,6.1,11.8,2.9,6.5,1.8,2.9,9.2,8.9,11.7,9.6,4.9,15.4,12,25.9,3.7,5.5,3.9,6.7-2.2,3.6-17.8-9-14.7-15.7-18.8-28.8-1.5-4.8-11.4-10.5-14.7-13.9-6-6.2,9.3-16.7-7.2-57.1-1.8-4.5-1.1-3.9-4,0-2.8,3.9-5,6.3-7.8,6.3-13.1,0-1.9-6.4-4.1-13.5-6.9-21-12.2-11.3-18-27.4-2.5-6.8-3.1-4.8-7.9-1.3-4.8,3.5-15.7,3.9-21,4.4-5.2.4-.9,3-2.2,5.6-1.3,2.6-7.5,5.9-19.9,18.9-21.4,22.3-22.8,12.5-22.6,21,.2,11.5,1.3,12.2-3.4,22.7-4.7,10.7-.5,13.3-10.5,20.5-4,2.9-4,2.4-5.9-1.9-7.9-18.5-33.6-47.1-26.3-92.1.2-1.1-3.7,3.1-4.8,5.3-1.1,2.2-1,4.8-5.5,5.2-4.4.4-5.3.5-9.5-3.7-4.2-4.2-6.1-6.5-5.4-6.4,1.6.2,12.1-1.6,10.1-4.7-11.7,1.3-7.3.2-13.2-2.2-7.6-3-5.2-1.4-9.2-10.9-3.1-7.4-3-3.4-10.2-3.3-9.3.2-6.5,4.6-24.1,4.1-9.5-.3-7.4-3.4-24.5-5.8-8.8-1.3.7-9-15.5-7.7-12.9,1-14.5-2.8-18.1-6.5-2.6-2.6-6.5-1.2-10.1-10.7-3.9-10.4-3.3-9-10.9-9s-3.1-.5-8.2,5.9c-1.7,2.1,1.3,4.9,3.7,7.7,2.4,2.8.3,2.5,4.1,6.7,3.8,4.2,2.5,3.8,5.2,9.7,2.7,5.9,4.4,7.4,5,9.1.7,2,2.7-1.9,1.5-9.6,5.5,11.2-.1,15.9,7.9,15.9,20.6,0,16.3-4.8,22.2-8.2,2.4-1.4,2.4-6.2,4-5.7,1.6.5,0,5.7,1.5,9,1.5,3.4,1.8,2.2,5.4,3.7,14.4,6,8.6,3.9,11.3,8.9,3.1,5.8,6.1-.6,3.6,7.5-.8,2.5-7.1,14.7-9.9,7.5-5.5,11.2,1.7,11.1-6.6,14.5-18.7,7.5-11.3,7.3-15.2,11-1.3,1.3-3.1.1-7,1.5-7.2,2.5-7,6.1-10.7,7.5-4.2,1.6-11.9,5.3-15.8,5.7-3.9.4-3.1,1.4-4,2.8-2.9,4.2-14,2.9-20,5.8-5.6,2.8-11.4,7.8-14,.6-5.9-16.1,4.4-16.8-25.1-49.4-1.2-1.4-.5-6.1-1.8-10.1-5.5-17-5-8-11.5-19.7-22.9-41.4-13.2-23.4-16.1-32.6-.9-2.9-3.3,4.7-5.2,6.2-4.6,3.6-6-13.6-8.4-10.1-5.1,7.4,11.5,25.6,17.6,45.4,3.6,11.6,7.9,9.4,9.9,16.7,3.2,11.5-3,12.6,6.2,20.2,3.1,2.5,6.3,11.6,7.4,15.1,1.8,5.8,4,6.3,10.9,8.8,2.7,1,1.8,1.7,3.6,4,1.8,2.3,5.4,4.1,7.6,7.8,2.6,4.5-1.1,7.7.9,10.1,1.6,1.9,4.4,3.4,9,6.5,3.5,2.3-.3,2,30.4-5.3,17-4,21.3-8.4,9.5,16.6-3.6,7.5-21.3,35.9-23.1,38.1-5.6,6.8-11.6,7.2-21.5,19.8-1.1,1.4-32.8,39.8-28.7,44.1,9.3,9.8.3,8.5,3.8,17.5,3.2,8.4,6.3,3.1,7,19.3,2,41.6-16,29.3-24.2,39.2-15.6,18.8-15.2,12.7-8.3,27.8,2.1,4.6.6,4.2.1,8.2-1.8,14.4,0,10.2-13.6,15.5-6.7,2.6-4.1-.8-5.4,19.2-.3,4.8.4-3-14.4,21.1-7,11.3-15.7,12-18.7,18.3-2.1,4.4-4.5,1.5-14.6,4.7-10.1,3.3-2.8,1.7-12.4,2.7-25.9,2.9-19.8,5.5-25.7-1-8-8.8-5.1-6.5-5.8-14.7-.6-7.5-.6-2.5-6.6-17.3-5.3-12.9-8.5-12.4-10.5-14.5-3-3.1-2.2-4.9-5-25.7-2.2-16.5-17.9-39-18-41.3-.1-1.5,3-19.6,3.1-20.2.8-4.9-1.1-4.9,1-8.2,5.6-9.1,9.4-14.8,4.8-27.7-2.3-6.3-6.7-30.9-8.5-35.7-1.2-3.4-1.8-2.1-4.5-4.3-32-26.5,13-54.9-27.7-55.7-5.8-.1-5.6-1.4-8.1-4.3-8.8-10.1-5-9.5-20.1-8.3-16.6,1.2-18.4,6-24.9,8.2-12,4.2-12-5.6-33.5,3.5-8.2,3.5-9.2-2.4-20.4-7.9-21.2-10.5-29.3-36.4-42.6-54.9-1.9-2.6-3.4-2.9-3.3-4.1,0-1.5,7.6-17.1,7.9-18.2.9-3.3-6.5-27.9-6.7-28.5-.4-1.4,25.2-45.4,26.5-46.5,10-9.2,17.9-10.6,18.8-12.9,1.3-3.8,2.2-24.7,5.8-26.6,15.8-8.4,14.1-8.3,16.6-14.3,1.5-3.5,2.1-7.9,4.3-9.3,2.2-1.4,1.6.6,4.5,2.6,6.8,4.6,5.1,1.3,10.7,1.3,9.4-.2,2.4,5.2,12.5-1,11.7-7.2,28.5-12.6,34.1-13.3,3.2-.4,9.5,4.3,10.6,2.7,4.3-6.1,5-4.1,12.8-2.7,8.7,1.5,10.5-3.3,12.1-3.3s10.5,3,9.4,4.3c-10.1,12.3,6.9,7.2-6,22.4-2,2.4-1.5,2.8,3.4,5.6,19.4,10.9,23.4,5.9,29.7,13.2,2.3,2.6,2.4,5.1,6.3,6.5,3.9,1.4,8.1,1.4,10.4,2.8,2.1,1.3,8.7,7.3,11.7,2.8,5.3-8-.8-6,.3-9.4,3.1-9,6.3-8.4,11.4-8.6,14.2-.7.3,0,20.6,7.8,3.1,1.2,1.5,2.9,3.1,2.8,9.9-.7,11.5,3.8,21.2,4.2,11.5.5,12.8-8.6,16.1-3.8,3.4,4.9,15.7,4,19,.3,5.3-6.1,10.7-25.1,11.3-28.1,1.6-7.5-2.2-7.3.8-15.9.9-2.6-2.9-1-4.4-.5-1.5.5-2-.8-3.4-1.2-6.3-1.7-.9,6-10.1,5.6-9.9-.5-.3-1.9-13.9-5.9-5.6-1.7-.7,2.8-5,4.3-2.7.9-10.1-.3-17.5-7.6-4.9-4.8-6.3-16.8-5.1-19.8,1.6-4.1-6.9,3.1-3.7-3.9,2.4-5.3,5.1-4.9,13.4-5.4,2.6-.2,11.6-3.8,9.9-4.2-14.8-3.9,10.9-2.7,12.2-4.9,4.4-7.9,5.4-5.9,14.4-6.3,5.6-.2,4.8,1.1,6.6,2.5,1.8,1.3,3.1.7,5.5,1.1,2.4.5.9,1.9,2.8,2.6,11,4.4,23.3,5.7,33.1-1.3,2.8-2,.9-6.3-.2-9.7-1.1-3.4-5.5-5.5-7.5-7.1-2-1.5-6.4-6.5-8.7-8.5-4.5-3.9-24.1-9.2-10.4-12.5,5.9-1.4-.1-4,7.5-6.8,3.1-1.1-3.6-3.5-4.5-4.8-1.5-2.2,7.2.6,9-5.2,1.5-4.6-13.2.1-17.9,1.4-6.2,1.7-3.4,1.7-7.1,4.6-3.7,2.9-4,1.7-3.5,3.3.5,1.6.7,3.1,4.5,5.1,3.8,2,2.2,2.1,3.3,2.3,1,.3,3.6.7,2.5,1-3.3.9-20,14.6-19.1,3.8.3-3.7-1.1-1.2-3.4-2-8.1-3.1,2.5-.8,5.8-9.1,1.3-3.3-10.4.2-12.9-4.9,0,0,1.2.5,3.3.2,2.1-.2,1.7-.8,2.5-1.4,2.7-1.9-.2-.7-4.2-.9-5.7-.4-8.1-.8-13.6,8.6-2.1,3.6,2.4,8.2-5.4,12-2,1-.7,1.7-.9,3.6-1,8.3-2.2,7.8-3.8,9.6-9.7,11.1,6.1,17.8,4.9,20.1-1.7,3.1-5-2.1-10.5,3.2-2.5,2.3-3,3.7-4.2,4.5-1.3.8-.9-1.7-1.3-2.9-.5-1.2-6.1-1.6-10-2.7-5.4-1.6-6.2-3.3-12.4.2-7.6,4.2.8,8.7-.3,16.8-.9,6.9,3.4,3.7,5.2,7.9,2.8,6.3-.9-.6-4,11.9-.8,3.4,0,3.9-.9,3.7-1-.2-2.2.6-4.1-2.2-1.9-2.8-3.5-.2-3.8-1.8-.3-1.6-2.7-4.4-1.7-8.1.9-3.8,2.4-4.1-.9-6.1-3.3-2-2.5-2.2-4-6.3-4-10.4-8.3-8.8-6.9-14.8,4.9-21.5-23.1-23.7-26.4-30.2-1.8-3.4-7-19.1-15.4-16-4.4,1.6-4.5,2.3-4.1,3.6,3.2,10.9-3.7,7.2,3.8,11.7,5.1,3.1,4.7,10,9.5,15.3,6.5,7.2,10.8,4.4,12.1,5.7,2.1,2-7.8-.5,3.3,6.4,3.9,2.4,7.8,4.9,8.8,6.8,1,1.9,4.4,9-.6,3.8-5-5.2-5.1-2.8-6.4.8-1.4,3.6,1.3,6.3,1.1,9-.2,2.7-2.5,1.6-4.1,3.8-1.6,2.1-2.4,4.7-4.2,6.1-2.7,2-.7-6.1-5,2.2-2.3,4.4,4.4,10.6-1.6,10.3-3.6-.2-2.8-3.5-6.1-5.7-3.3-2.2-5.2-1.5-8-3.2-5.1-3.1,12-1.6,18-6.2,12.2-9.4-7.5-26.9-16.4-29.1-3.5-.9-2.8-4-4.8-5-15.2-7.4-11.2-39.4-33.7-17.6-4.4,4.3-3.5,6.3-8.7,3.1-8.5-5.4-15.1,1-15.1,12.5s-5.2-6.4-19.9,21.4c-5.3,10.1.4,5.3-.7,8.7-1.1,3.4.4,6.2-4.6,10.6-5,4.5-2.8-.5-5.7,3.1-2.9,3.6-7,6.5-14,5.7-7-.9-5,1.9-9.4,2.9-4.4,1-6.8,2.6-5.7-2.4,1.1-5,.2-4.3-8.3-3.9-14,.6-11.1,6-8.6-6.7.9-4.8,2.2-6.3.9-6.3-6.9,0,1.6-13.4-.2-23-.9-5,.4-11.7-.7-14.6-1.1-2.9,2.2-5.8.7-7.4-3.3-3.4-5.1-5,9.6-2.4,5.9,1,12-.9,15.5-.5,23.6,2.4,25.9,9.7,24.7-8.7-.7-10.8.6-15.8-1.7-18-2.2-2.2-4.6-2.1-7-5-2.4-2.9-.6-7.2-5.7-8.7-5.2-1.5-10.9-.3-8.1-1.4,2.8-1,3.9-1.4.9-3.6-6.9-5.2-1-5.3,7-5.3.8,4.6,11.6-.6,10.5-3.3-4.2-10-3-1.9,6.8-1.9s6.4-1,5.9-3.9c-.6-2.9,4.6-2.7,8.1-5.1,3.5-2.4-1.3-5.1-.6-7.4,1.9-5.9,20.7-2.5,17.1-6.7-.7-.9.2-4.5.7-9.1.8-6.1-1.7-9.1,13.3-10.5,7.5-.7,2.9-2.4,4.2-2.7,21.8-5.8,10,1.8,6.8-27.3-1.7-15.1-1.3-15.1,7.9-17.8,9.2-2.7,7.2-1.9,6.4,6.5-.9,10.2-12.2,13.8-2,31,3.9,6.5,3.5,3.3,11.8,3.3s6.4,2.1,12,3.9c5.5,1.9,3.7-3.4,9-5.3,4.2-1.5-2.1.6,23.5-1.6-.4,0-1.8,0-.3-.8,2.9-1.7,3.7-4.8,7.9-5.3,4.2-.5,7.2,1.2,7-5.3-.2-6.5-2.6-5.5-1.8-10.5,1.8-12.3,1.2-11.4,6.1-12.7,5.3-1.4,1.7,4.8,8.1,6.2,6.4,1.4,5.5,2.4,6.6-2.6,1.1-5,4.6-11.5,1.5-11.1-3.1.3-3.9-.2-7-4.8-3.1-4.6-5-5.7-2.9-5.7s8.8-1.9,18.6-1.5c21.4.7,8.6-.1,14.7-3.9,3.3-2.1,14.2,1,12.5-.9-9.8-11.1-54.7,10.5-54.7-11.5s2-7.9-1.3-13.4c-3.3-5.5,6.1-10.1,12.5-15.9,6.4-5.8,4.8-10.6,8.6-11,12-1.1-6.1-12.9-8.5-13.4-3.3-.7-8.3-4.5-13.4,4.5-5.1,8.9.4,9.8,1.3,14.4.9,4.6-7.2,8.1-13.3,12.3-6.1,4.3-8.3,3.3-10.1,14.2-1.8,11-3.7,11.3,3.1,15.1,17.3,9.6-3.3,9.1-8.8,19.7-4,7.7-2.4,11.5-4,14.9-1.7,3.4-6.8,5-8.3,8.4-1.5,3.4-1.5,9.9-7.7,8.9-6.3-1-2.8-9.4-5.5-13.7-2.8-4.3-5-7.9-8.3-13.2-3.3-5.3-.7-10.5-3.9-13.2-3.1-2.7-3.9-8.2-3.9-8.2-2.7,6.3-1.8,6.9-7.9,14.4-6.3,7.7-15.7,8.2-20.3,6.3-4.6-1.9-3.9-6.3-3.9-12,0-32.1-3.1-26.5,13.1-36.2,9.8-5.8,9.9-5.5,12.3-9.3,7.6-11.9,15.1-5.2,28.2-38.2,3.7-9.3,10.5-14.9,17.1-24.9,15.5-23.3,39.2-22.3,49.5-37,3.5-5,5-2.1,10.9-3.3,5.9-1.2,5,0-.9,5.8-5.9,5.8-8.5,12-3.5,7.4,9.5-8.8,12.6-13.7,28.7-6.3,7.6,3.4,8.8,3.8,4.6,6.5-4.3,2.7-11.4,2.1-11.4,2.1,0,0,2.4,5.7,9.4,6.5,7,.9,10.9-5.5,15.5-3.1,4.6,2.4,5.9,4.1-.4,3.6-9.3-.8-9.3,6.9,18.2,10.6,10.1,1.4,14.6,8.7,22.3,12,7.7,3.3,16.8.5,14.2,7.6-2.6,7,2,13.9-11.4,17.1-13.4,3.3-13.1-1-24.3-4.5-19.1-5.8-26.2-12.2-11,1.9,13.5,12.6-4.1,26.1,11,33.4,8.8,4.3,7.6,3.1,10.3,2.4,2.8-.7,7.4-1.5,6.3-2.9-1.1-1.4-2-3.9-5-5.3-2.9-1.4-3.1-4.6-.2-6.2,2.9-1.5,5.7,1.4,12.1,1,6.5-.3,0-2.4,3.1-5.6,3.1-3.3,3.3-8.7,10.9-11.7,7.6-2.9,15.6,1.4,17.7-1.9,8.1-13.1-10-16.4-5-21.1,2.6-2.4,7.7-8.7,10.1-5.1,2.4,3.6,8.5,7.6.7,6.9-7.7-.7-2.4,11.5,4.6,10.8,12.9-1.3,35.3-27.3,49.7-20.9,13.1,5.7,16.8-.5,31.1-2.9,8.1-1.4-.6,2.9,3.1,4.1,3.7,1.2,4.1,2.2,6.8.4,9.6-6.6,13.3-4.3.5-13.2,7.9-17.5,41.6,7.6,54.5,23,0,0,3.3-5.6.5-15.1-2.8-9.4-9.8-7.2-9.8-16.1s-6.5-6.5-4.2-12.9c2.2-6.3,8.5-8.7,10.1-16.8,3.5-17.2,4.7-16.1,26.9-13,0,0,0,7.4-4.6,18.3-4.6,11,2.4,12.2,1.3,25.5-1.1,13.4-1.3,15.1,1.8,18.2,3.1,3.1,9,6.9,6.8,12.7-8.4,22.2-34.3,11.4-26.5,16.6,3.9,2.6,8.8,4.8,14.4,5.6,5.5.9,2.8-.3,7.2-3.9,4.4-3.6,14.4-10.8,14-14.2-.4-3.4-5.7-8.7-2-11.3,3.7-2.6,5.1-6.5,10.9-3.3,5.7,3.3,11.2,15.4,11.2,14.9s-1.1-12-7.9-18.9c-6.8-6.9-18-.4-18-6.3s3.1-14.2,2.4-20.8c-.7-6.5-3.3-13,.9-18.7,4.2-5.7,4.4-10.1,4.4-10.1,2.7,7.7-3.5,22.6,4.2,22.6s17.1.2,9.6-2.1c-7.5-2.2-9.8-4.3-2.2-8.4,11.8-6.4,42.2,13.8,37.4,1.7-1.3-3.3-2.9-5.5-6.4-7.7-8.4-5.3-3.4,8.4-11-18.2-.9-3.3,2.8-.7,8.7-.7,59.9,0,35.5-3.9,33.5-23.5-1.3-12.5,46.1-9.2,81.2-17.5,21.7-5.1,7.7-4.3,10.9-10.5,5.9-11.5,28-6.3,24.9-5.1-2.4.9-9.6,4.5,1.7,6.9,11.2,2.4,8.3,2.2,2.4,4.3-5.9,2.1-.9,5.8,10.5,5.8s4.6-1,2.8-4.8c-1.8-3.8,1.7-2.4,11.1-.9,9.4,1.5,13.1,3.1,18.2,7.9,20.2,18.9-1.3,21-24.3,35.5-11.4,7.2-8.7,11-14.9,15.8-11.7,9,20.4-6.5,35.9-5,10.4,1,6.3,4.1,31.1,4.1s13.8,0,7.9,4.6c-10.7,8.4,25,6.2,30.9,5.3,6.6-1,.9-6,8.8-6.3,33.8-1.5,21.4-1.2,27.8,5.5,12.6,13.2-1.8,8.3,1.7,26.1,1.7,8.4,5.9,9.6,11.1,11.1,5.1,1.5,5.1-7.5,10.1-10.6,5-3.1,6.1,6.2,11.8,4.8,14.8-3.5,18.3,5,33.3,1.7,7-1.5,4.8-4.3,2.4-8.6-2.4-4.3-2.6-3.9,1.8-8.4,4.4-4.5,7.4-2.2,21.7,1.5,52.8,13.9,43.5,24.3,51.4,29.3,5.7,3.6,6.1,0,17.5-1,11.4-1,11.2,1.4,23.7,4.6,19.4,5,.9,16.3,13.4,19,7.7,1.7,10.9,3.3,17.5,1.5,6.6-1.7.7,1.7,15.5,1.9,14.7.2,9.8-1.7,14.2,1.4,4.4,3.1,5.5,9.3,12.7,8.6,7.2-.7,6.6-.5,3.7-6.9-4.6-10-9-8.6,28.3-2.6,16,2.6,16.6,5.5,29.7,13.7,53.6,33.8,53.4,27.3,69.4,39.9.6.9-10.4,3.1-17.7.3ZM1657.8,705.7s-1,1.3,4.2-2.8c7.6-6-11.3,5.3-8.3-7,.9-3.8-.4-3.8-3.5-8.7,0,0-1.7-1-5.1,1-3.5,2.1-5.5-2-9.8-.5-4.2,1.5-8.8.9-11.4,7.2-2.6,6.3-5.5,2.2-6.4,7.4-.9,5.1-8.8,7.9-8.8,7.9,13.7,13.5,4.2,21.9,16,26.8,3.3,1.4,8.5,4.6,8.5,4.6,0,0-3.1-1.9-3.1,3.3s-5,8.7-4.4,16.3c.6,7.5-6.8,14.6-.9,15.3,5.9.7,7.4,7.9,30,7.9s1.9-2.1.6-23.5c-.4-5.8-2.6-4.3-4.1-7.9-1.5-3.6.7-5.7,5.1-5.7s5-.2,2.6-4.1c-2.4-4-.9-5.5-3.9-7.2-2.9-1.7-4.2,5.7-4.2,5.7,0,0-1.8-1.7-1.1-8.9.7-7.2,1.3-3.8-.9-5.1-2.2-1.4-3.5.3-6.5-4.5-2.9-4.8-.4-3.8-3.9-9.6-3.5-5.8-1.7-2.8,2.2-2.8s1.8-.9,0-2.7c-8.1-8.4,17.7-2.6,17.2-2.2ZM970.9,441.5c-1.7,2.9,2.9,6.7,6.2,5.5,3.3-1.2,4.4.1,6.3-1.4,1.9-1.5,2.1-3.7-.2-5.9-2.2-2.2-1.3-3.4-1.7-3.7-4.2-2.6-8.9,2.5-10.6,5.4ZM1881.1,252.5c-5,.2-10.5.3-5.9,1.9,4.6,1.5,2.8,9.3,11.6,5,8.8-4.3,7-4.6,13.1-7.2,6.1-2.6,2.6-1.3-4.8-3.3-4.6-1.2-9,3.4-14,3.6Z"/>
</svg>