<?xml version="1.0" encoding="UTF-8"?>
<svg id="Capa_1" xmlns="http://www.w3.org/2000/svg" version="1.1" viewBox="0 0 8192 1490">
  <!-- Generator: Adobe Illustrator 29.6.1, SVG Export Plug-In . SVG Version: 2.1.1 Build 9)  -->
  <defs>
    <style>
      .st0 {
        fill: #222831;
      }

      .st1 {
        fill: #31363f;
      }
    </style>
  </defs>
  <path class="st1" d="M0,431.9l341.3,37.3c341.3,37.3,1024,112,1706.7,147.2,682.7,36.3,1365.3,32,2048-3.2,682.7-35.2,1365.3-103.5,2048-144s1365.3-55.5,1706.7-61.9l341.3-7.5v949.3H0V431.9Z"/>
  <path class="st0" d="M0,1211.7l341.3-34.9c341.3-36.1,1024-105.9,1706.7-160.7,682.7-53.6,1365.3-90.9,2048-78.5,682.7,12.5,1365.3,74.7,2048,108.4,682.7,32.4,1365.3,37.4,1706.7,38.6l341.3,2.5v423.6H0v-299h0Z"/>
</svg>