<?xml version="1.0" encoding="UTF-8"?>
<svg id="Capa_1" xmlns="http://www.w3.org/2000/svg" version="1.1" viewBox="0 0 8192 979.1">
  <!-- Generator: Adobe Illustrator 29.5.1, SVG Export Plug-In . SVG Version: 2.1.0 Build 141)  -->
  <defs>
    <style>
      .st0 {
        isolation: isolate;
      }

      .st1 {
        stroke-width: 7.5px;
      }

      .st1, .st2 {
        fill: #daa267;
        stroke: #77582e;
        stroke-miterlimit: 10;
      }

      .st3 {
        mix-blend-mode: multiply;
      }

      .st4 {
        display: none;
      }
    </style>
  </defs>
  <g class="st0">
    <g id="Capa_11" data-name="Capa_1" class="st4">
      <g>
        <path class="st1" d="M8209.9,3.5c-1280.4,515.9-2928.4,306.4-2928.4,306.4C2393.8,137.7,789.1,370.9-7.1,569.3"/>
        <path class="st1" d="M-7.3,849.1c1429.9,376,4512.1-272.2,4512.1-272.2,1884.7-445.3,3705.4,282.6,3705.4,282.6"/>
        <path class="st1" d="M-7.9,294c1429.6-376,4511.3,272.2,4511.3,272.2,1884.4,445.3,3704.8-282.6,3704.8-282.6"/>
      </g>
    </g>
    <g id="Capa_2">
      <g class="st3">
        <path class="st2" d="M2198.6,721.2c-72.1,0-144.8-2.7-217.5-8.7-202.3-16.6-395.1-57.5-581.5-97.1-33.8-7.2-67.6-14.3-101.3-21.3-219.5-45.6-455.6-87.1-694.8-82-263.5,5.6-493.5,74-586.1,174.3l-11.9-2.8c94.6-102.5,329.1-172.4,597.4-178.1,241.6-5.1,479.5,36.6,700.4,82.5,33.8,7,67.6,14.2,101.4,21.4,185.7,39.4,377.8,80.1,578.5,96.6,513.6,42.2,1025.2-79.5,1365.3-174.7,101.9-28.5,204.4-59,303.6-88.5,310.1-92.2,630.7-187.5,981.3-237.6,554.5-79.3,1180.6-37,1674.8,112.9,126,38.2,245.4,83.6,360.9,127.4,83.7,31.8,170.2,64.6,258.5,94.5,255.3,86.4,483.6,129.5,697.8,131.9,270.7,3,523.5-69.8,615.3-177l12.1,2.7c-93.9,109.6-352.3,183.9-627.7,181.1-216.8-2.4-447.3-45.9-704.8-133-88.6-30-175.3-62.9-259.1-94.7-115.2-43.7-234.4-89-359.8-127-491.1-149-1113.4-191-1664.5-112.2-348.9,49.9-668.8,145-978.2,237-99.2,29.5-201.8,60-303.9,88.6-293.8,82.2-715.1,184.1-1156.3,184.1v-.3Z"/>
      </g>
      <path class="st2" d="M3108,829.1c-141.7,0-276.6-10.5-399.9-31.8-331.6-57.5-547.4-184.8-714.7-301.8-25.4-17.7-50.4-35.7-75.5-53.6-145.4-104-295.7-211.6-523.3-289.1C1016.9,24,446.1-1.6,6.5,90.5l-6.5-5C444.5-7.5,1021.7,18.3,1403.7,148.4c229.5,78.2,380.4,186.2,526.4,290.6,25.1,17.9,50.1,35.8,75.4,53.6,166.2,116.2,380.4,242.7,708.2,299.5,385.1,66.8,888,25.6,1345.1-110.2,202.9-60.2,386-132.7,563.1-202.7,160.5-63.4,326.4-129,506.9-185.6,216.6-67.9,781.6-217.3,1348.5-139.3,197.3,27.2,367.1,79.1,531.3,129.3l21.1,6.5c178.2,54.4,354.9,105.1,558.2,126.9,230.2,24.7,463.3,3.1,593.7-54.9l10.4,3.7c-133.8,59.6-372.3,81.8-607.7,56.6-205.8-22.1-383.8-73.1-563.1-127.9l-21.1-6.5c-163.3-50-332.2-101.6-527.3-128.5-560.4-77.1-1120.6,71.1-1335.4,138.4-179.8,56.4-345.5,121.8-505.7,185.2-177.5,70.2-361,142.7-564.6,203.2-315.4,93.7-652.7,142.6-959.1,142.7"/>
      <path class="st2" d="M5.5,428.4c209.8-55.9,472.2-94.4,758.9-111.3,286.6-16.9,577.6-11.1,841.4,16.9,468.1,49.6,828.6,160.2,1177.3,267.2,58,17.8,117.9,36.2,177.1,53.9,346.3,103.6,877.9,240.3,1492.8,231.3,314.2-4.6,635-46.1,1009.6-130.5,101.2-22.8,201.1-47.3,297.8-71,188.9-46.3,384.2-94.1,597.8-131.6,218.1-38.3,647.7-96.8,1075.2-57.8,254.9,23.3,468.7,78.1,657.4,126.5l360.8,92.5-8.5,3-360.8-92.5c-187.7-48.1-400.4-102.7-652.7-125.7-422.7-38.6-848.5,19.4-1064.8,57.4-212.7,37.4-407.6,85.1-596.1,131.3-96.8,23.7-196.8,48.2-298.2,71.1-376.8,84.9-699.9,126.6-1016.8,131.3-19.6.3-39.2.4-58.7.4-595.2,0-1106.9-132-1444-232.9-59.2-17.7-119.2-36.1-177.2-53.9-347.6-106.6-707-216.9-1172.3-266.2-537-56.9-1160.1-20.2-1587.2,93.7"/>
    </g>
  </g>
</svg>