<?xml version="1.0" encoding="UTF-8"?>
<svg xmlns="http://www.w3.org/2000/svg" version="1.1" viewBox="0 0 122 34.7">
  <!-- Generator: Adobe Illustrator 29.5.1, SVG Export Plug-In . SVG Version: 2.1.0 Build 141)  -->
  <defs>
    <style>
      .st0 {
        fill: #99774c;
      }

      .st1 {
        display: none;
      }
    </style>
  </defs>
  <g id="Capa_1" class="st1">
    <g>
      <g>
        <g>
          <path class="st0" d="M86.6,5.7c-2.8-1.1-5.7,0-8.4.8-.3,0-1.4.5-1.6.4-.2-.1-.3-.9-.5-1.2-.4-.6-1.2-1-1.9-1.1-.6,0-1.1,0-1.6.4,0,0-.1,0-.1.2,0,.2.2.3.3.4,1.7,1,.7,3.3-.5,4.2-2.4,1.7-5.2,3.3-8.1,2.4-3.2-1-4.7-5.1-2.3-7.6.3-.3.7-.6,1.2-.7.5,0,1,.1,1.2.5.3.5,0,1.1.2,1.6.2,1,1.7,1.2,2.4.6.7-.7.6-2,0-2.7s-1.7-1-2.7-.9c-2.6.3-4.5,2.9-4.4,5.5,0,.4,0,.8.1,1.1.2,1.2.9,2.2,1.9,3,1.1.8,2.6,1.2,3.9,1.1.2,0,.3,0,.5,0,2.7-.3,5.2-1.5,7.4-3,1.3-.7,2.8-1.2,4.3-1.3.8,0,1.6,0,2.4.1.7.1,2.1,1,1.2,2-.2.2,0,.4.1.4,1.1,0,2.3-.7,2.7-2,0-.3.1-.7,0-1.1,0-.3-.3-.6-.4-.9.8-.3,1.5-.9,2.4-1.3.4-.2.8-.7.2-.9Z"/>
          <g>
            <path class="st0" d="M60.5,13.1c.4.2.7.5,1,.8,5.2,4.6,13.1,5.1,19.3,2.2,1.5-.7,3-1.5,4.5-2.5.9-.6,1.7-1.2,2.5-1.9.8-.6,1.8-1.1,2.4-1.9.4-.5.6-1.1.9-1.6.3-.5.6-1,1-1.5.8-1.1,1.8-1.9,3.1-2.4,1.1-.4,2.3-.5,3.5-.6.5,0,1,0,1.5,0,.3,0,.8,0,.9.3,0,.3-1.5,1.8-1.6,2.1,3.4-1.2,7.3-.3,9.9,2,1.1,1,2,2.3,2.3,3.8.4,1.9-.3,3.9-1.3,5.6-.5.9-1.2,1.7-2,2.3s-1.8,1-2.9.9-2-.7-2.5-1.6c-.2-.5-.3-1-.2-1.5.1-.6.5-1.2,1.1-1.5,1.3-.6,2.9.6,4-.1.5-.3.8-.9.8-1.4.2-1.5-.8-2.9-1.9-3.7-1.2-.9-2.7-1.4-4.2-1.6-3.7-.5-7.7.8-11,2.4-.6.3-1.2.6-1.7.9,0,0-.1,0-.2.1-2.9,1.7-5.4,4-8.4,5.5-3.9,2-8.2,2.9-12.5,2-2.7-.6-5.3-2-7.3-4.3-.6-.7-1.5-1.9-1.5-3,0,0,.2,0,.2.1Z"/>
            <path class="st0" d="M67.1,18.3c-.8.2.5,1.6.7,1.9.4.6.8,1.6,0,2.1-.4.2-.8.3-1.3.3-1.3.1-1.6,1-1.1,2.2.3.7,1.1.9,1.9.9,1.9-.2,3.2-1.6,2.9-3.5-.2-1.6-1.2-2.8-2.5-3.7-.2-.1-.5-.2-.7-.2Z"/>
          </g>
        </g>
        <g>
          <path class="st0" d="M32.7,5.7c2.8-1.1,5.7,0,8.4.8.3,0,1.4.5,1.6.4.2-.1.3-.9.5-1.2.4-.6,1.2-1,1.9-1.1.6,0,1.1,0,1.6.4,0,0,.1,0,.1.2,0,.2-.2.3-.3.4-1.7,1-.7,3.3.5,4.2,2.4,1.7,5.2,3.3,8.1,2.4,3.2-1,4.7-5.1,2.3-7.6-.3-.3-.7-.6-1.2-.7-.5,0-1,.1-1.2.5-.3.5,0,1.1-.2,1.6-.2,1-1.7,1.2-2.4.6-.7-.7-.6-2,0-2.7s1.7-1,2.7-.9c2.6.3,4.5,2.9,4.4,5.5,0,.4,0,.8-.1,1.1-.2,1.2-.9,2.2-1.9,3-1.1.8-2.6,1.2-3.9,1.1-.2,0-.3,0-.5,0-2.7-.3-5.2-1.5-7.4-3-1.3-.7-2.8-1.2-4.3-1.3-.8,0-1.6,0-2.4.1-.7.1-2.1,1-1.2,2,.2.2,0,.4-.1.4-1.1,0-2.3-.7-2.7-2,0-.3-.1-.7,0-1.1,0-.3.3-.6.4-.9-.8-.3-1.5-.9-2.4-1.3-.4-.2-.8-.7-.2-.9Z"/>
          <g>
            <path class="st0" d="M58.8,13.1c-.4.2-.7.5-1,.8-5.2,4.6-13.1,5.1-19.3,2.2-1.5-.7-3-1.5-4.5-2.5-.9-.6-1.7-1.2-2.5-1.9-.8-.6-1.8-1.1-2.4-1.9-.4-.5-.6-1.1-.9-1.6-.3-.5-.6-1-1-1.5-.8-1.1-1.8-1.9-3.1-2.4-1.1-.4-2.3-.5-3.5-.6-.5,0-1,0-1.5,0-.3,0-.8,0-.9.3,0,.3,1.5,1.8,1.6,2.1-3.4-1.2-7.3-.3-9.9,2-1.1,1-2,2.3-2.3,3.8-.4,1.9.3,3.9,1.3,5.6.5.9,1.2,1.7,2,2.3s1.8,1,2.9.9,2-.7,2.5-1.6c.2-.5.3-1,.2-1.5-.1-.6-.5-1.2-1.1-1.5-1.3-.6-2.9.6-4-.1-.5-.3-.8-.9-.8-1.4-.2-1.5.8-2.9,1.9-3.7,1.2-.9,2.7-1.4,4.2-1.6,3.7-.5,7.7.8,11,2.4.6.3,1.2.6,1.7.9,0,0,.1,0,.2.1,2.9,1.7,5.4,4,8.4,5.5,3.9,2,8.2,2.9,12.5,2,2.7-.6,5.3-2,7.3-4.3.6-.7,1.5-1.9,1.5-3,0,0-.2,0-.2.1Z"/>
            <path class="st0" d="M52.3,18.3c.8.2-.5,1.6-.7,1.9-.4.6-.8,1.6,0,2.1.4.2.8.3,1.3.3,1.3.1,1.6,1,1.1,2.2-.3.7-1.1.9-1.9.9-1.9-.2-3.2-1.6-2.9-3.5.2-1.6,1.2-2.8,2.5-3.7.2-.1.5-.2.7-.2Z"/>
          </g>
        </g>
        <path class="st0" d="M60.6,17.6c-.2-.1-.4-.3-.6-.4,0,0-.1,0-.2-.1,0,0,0,0,0,0,0,0-.1,0-.2.1-.2.2-.4.3-.6.5-.5.4-1.9,1.3-1.8,2,0,.2.1.4.2.5.3.6.7,1.1,1,1.7.2.3.3.6.5.8.2.4.3.8.8,1,.2,0,.3,0,.5-.1.2-.2.4-.6.5-.8.2-.3.3-.6.5-.9.3-.6.7-1.1,1-1.7.1-.2.2-.4.2-.5.1-.7-1.3-1.6-1.8-2Z"/>
      </g>
      <g>
        <path class="st0" d="M7,2.4c.6.1,1.4.2,2.2.2,18.7.2,37.4.2,56.1.2,3.6,0,7.2,0,10.8,0,6.1,0,12.3,0,18.5,0,3.1,0,6.3,0,9.4-.1,1.6,0,3.2,0,4.8,0,1,0,3.1,0,3.8-.2-.5-.1-1.4-.1-2.1-.1-19,0-38,0-57,0-7.6,0-15.3,0-22.9,0-7.9,0-15.8,0-23.7.2,0,0,0,0,.1,0Z"/>
        <path class="st0" d="M110.8,1.8c-.1.1-.2.2-.4.3,0,0,0,0-.1.1,0,0,0,0,0,0,0,0,0,0,0,.1.1.1.3.2.4.4.3.3,1.1,1.1,1.7,1,.2,0,.3,0,.5-.1.5-.2,1-.4,1.5-.5.2,0,.5-.2.7-.3.3-.1.7-.2.9-.4,0-.1,0-.2,0-.3-.2-.1-.5-.2-.7-.3-.3,0-.5-.2-.8-.3-.5-.2-1-.4-1.5-.6-.2,0-.3-.1-.5-.1-.6,0-1.4.7-1.7,1Z"/>
        <path class="st0" d="M109.4,2.2c0-.4.3-.7.6-.7.3,0,.6.3.6.7,0,.4-.3.7-.6.7-.3,0-.6-.3-.6-.7Z"/>
        <path class="st0" d="M11.2,1.8c.1.1.2.2.4.3,0,0,0,0,.1.1,0,0,0,0,0,0,0,0,0,0,0,.1-.1.1-.3.2-.4.4-.3.3-1.1,1.1-1.7,1-.2,0-.3,0-.5-.1-.5-.2-1-.4-1.5-.5-.2,0-.5-.2-.7-.3-.3-.1-.7-.2-.9-.4,0-.1,0-.2,0-.3.2-.1.5-.2.7-.3.3,0,.5-.2.8-.3.5-.2,1-.4,1.5-.6.2,0,.3-.1.5-.1.6,0,1.4.7,1.7,1Z"/>
        <path class="st0" d="M12.6,2.2c0-.4-.3-.7-.6-.7-.3,0-.6.3-.6.7,0,.4.3.7.6.7.3,0,.6-.3.6-.7Z"/>
      </g>
    </g>
  </g>
  <g id="Capa_2">
    <g>
      <g>
        <g>
          <path class="st0" d="M36,23.6c2.7,1.1,5.6,0,8.3-.8.3,0,1.3-.5,1.6-.4.2.1.3.9.5,1.2.4.6,1.1,1,1.8,1.1.5,0,1.1,0,1.6-.4,0,0,.1,0,.1-.2,0-.2-.2-.3-.3-.4-1.7-1-.7-3.3.5-4.1,2.4-1.7,5.1-3.3,8-2.4,3.1,1,4.7,5,2.2,7.5-.3.3-.7.6-1.2.7-.5,0-1-.1-1.2-.5-.3-.5,0-1.1-.2-1.6-.2-1-1.7-1.2-2.4-.5-.7.7-.6,1.9,0,2.7s1.7,1,2.7.9c2.6-.3,4.4-2.9,4.4-5.5,0-.4,0-.7-.1-1.1-.2-1.2-.9-2.2-1.9-2.9-1.1-.8-2.5-1.2-3.9-1.1-.2,0-.3,0-.5,0-2.7.3-5.1,1.5-7.4,3-1.3.7-2.7,1.2-4.3,1.3-.8,0-1.6,0-2.3-.1-.7-.1-2.1-1-1.2-1.9.1-.2,0-.4-.1-.4-1.1,0-2.3.7-2.7,2,0,.3-.1.7,0,1.1,0,.3.3.6.4.8-.8.3-1.5.9-2.3,1.3-.4.2-.8.7-.2.9Z"/>
          <g>
            <path class="st0" d="M61.9,16.2c-.4-.2-.7-.5-1-.8-5.2-4.6-13-5-19.1-2.2-1.5.7-3,1.5-4.4,2.5-.9.6-1.6,1.2-2.5,1.8-.8.6-1.8,1.1-2.4,1.9-.4.5-.6,1.1-.9,1.6-.3.5-.6,1-1,1.5-.8,1.1-1.8,1.9-3,2.4-1.1.4-2.3.5-3.5.6-.5,0-1,0-1.5,0-.3,0-.8,0-.9-.3,0-.3,1.5-1.8,1.6-2-3.3,1.1-7.2.3-9.8-2-1.1-1-2-2.3-2.3-3.8-.4-1.9.3-3.9,1.3-5.6.5-.9,1.2-1.7,2-2.3s1.8-1,2.8-.9,2,.7,2.4,1.6c.2.5.3,1,.2,1.5-.1.6-.5,1.2-1.1,1.5-1.2.6-2.8-.6-4,.1-.5.3-.8.9-.8,1.4-.2,1.4.7,2.8,1.9,3.7,1.2.9,2.7,1.4,4.1,1.5,3.7.4,7.6-.8,10.9-2.4.6-.3,1.1-.6,1.7-.9,0,0,.1,0,.2-.1,2.8-1.7,5.4-4,8.3-5.5,3.8-2,8.2-2.9,12.3-2,2.7.6,5.3,2,7.2,4.2.6.7,1.5,1.9,1.5,3,0,0-.2,0-.2-.1Z"/>
            <path class="st0" d="M55.4,11.1c.7-.2-.5-1.6-.7-1.9-.4-.6-.8-1.6,0-2,.4-.2.8-.3,1.2-.3,1.3-.1,1.6-1,1-2.2-.3-.7-1.1-.9-1.9-.9-1.9.2-3.1,1.5-2.9,3.4.2,1.6,1.2,2.8,2.5,3.6.2.1.5.2.7.2Z"/>
          </g>
        </g>
        <g>
          <path class="st0" d="M89.4,23.6c-2.7,1.1-5.6,0-8.3-.8-.3,0-1.3-.5-1.6-.4-.2.1-.3.9-.5,1.2-.4.6-1.1,1-1.8,1.1-.5,0-1.1,0-1.6-.4,0,0-.1,0-.1-.2,0-.2.2-.3.3-.4,1.7-1,.7-3.3-.5-4.1-2.4-1.7-5.1-3.3-8-2.4-3.1,1-4.7,5-2.2,7.5.3.3.7.6,1.2.7.5,0,1-.1,1.2-.5.3-.5,0-1.1.2-1.6.2-1,1.7-1.2,2.4-.5.7.7.6,1.9,0,2.7s-1.7,1-2.7.9c-2.6-.3-4.4-2.9-4.4-5.5,0-.4,0-.7.1-1.1.2-1.2.9-2.2,1.9-2.9,1.1-.8,2.5-1.2,3.9-1.1.2,0,.3,0,.5,0,2.7.3,5.1,1.5,7.4,3,1.3.7,2.7,1.2,4.3,1.3.8,0,1.6,0,2.3-.1.7-.1,2.1-1,1.2-1.9-.1-.2,0-.4.1-.4,1.1,0,2.3.7,2.7,2,0,.3.1.7,0,1.1,0,.3-.3.6-.4.8.8.3,1.5.9,2.3,1.3.4.2.8.7.2.9Z"/>
          <g>
            <path class="st0" d="M63.6,16.2c.4-.2.7-.5,1-.8,5.2-4.6,13-5,19.1-2.2,1.5.7,3,1.5,4.4,2.5.9.6,1.6,1.2,2.5,1.8.8.6,1.8,1.1,2.4,1.9.4.5.6,1.1.9,1.6.3.5.6,1,1,1.5.8,1.1,1.8,1.9,3,2.4,1.1.4,2.3.5,3.5.6.5,0,1,0,1.5,0,.3,0,.8,0,.9-.3,0-.3-1.5-1.8-1.6-2,3.3,1.1,7.2.3,9.8-2,1.1-1,2-2.3,2.3-3.8.4-1.9-.3-3.9-1.3-5.6-.5-.9-1.2-1.7-2-2.3s-1.8-1-2.8-.9-2,.7-2.4,1.6c-.2.5-.3,1-.2,1.5.1.6.5,1.2,1.1,1.5,1.2.6,2.8-.6,4,.1.5.3.8.9.8,1.4.2,1.4-.7,2.8-1.9,3.7-1.2.9-2.7,1.4-4.1,1.5-3.7.4-7.6-.8-10.9-2.4-.6-.3-1.1-.6-1.7-.9,0,0-.1,0-.2-.1-2.8-1.7-5.4-4-8.3-5.5-3.8-2-8.2-2.9-12.3-2-2.7.6-5.3,2-7.2,4.2-.6.7-1.5,1.9-1.5,3,0,0,.2,0,.2-.1Z"/>
            <path class="st0" d="M70.1,11.1c-.7-.2.5-1.6.7-1.9.4-.6.8-1.6,0-2-.4-.2-.8-.3-1.2-.3-1.3-.1-1.6-1-1-2.2.3-.7,1.1-.9,1.9-.9,1.9.2,3.1,1.5,2.9,3.4-.2,1.6-1.2,2.8-2.5,3.6-.2.1-.5.2-.7.2Z"/>
          </g>
        </g>
        <path class="st0" d="M61.8,11.7c.2.1.4.3.6.4,0,0,.1,0,.2.1,0,0,0,0,0,0,0,0,.1,0,.2,0,.2-.2.4-.3.6-.5.5-.4,1.9-1.3,1.8-2,0-.2-.1-.4-.2-.5-.3-.6-.7-1.1-1-1.7-.2-.3-.3-.6-.5-.8-.2-.4-.3-.8-.8-1-.2,0-.3,0-.5.1-.2.2-.4.5-.5.8-.2.3-.3.6-.5.9-.3.6-.7,1.1-1,1.7-.1.2-.2.3-.2.5-.1.7,1.3,1.6,1.8,2Z"/>
      </g>
      <g>
        <path class="st0" d="M114.9,26.9c-.6-.1-1.4-.2-2.2-.2-18.5-.2-37.1-.2-55.6-.2-3.6,0-7.1,0-10.7,0-6,0-12.2,0-18.3,0-3.1,0-6.2,0-9.3,0-1.6,0-3.2,0-4.8,0-1,0-3,0-3.7.2.5.1,1.4.1,2.1.1,18.8,0,37.6,0,56.5,0,7.6,0,15.1,0,22.7,0,7.8,0,15.7,0,23.5-.2,0,0,0,0-.1,0Z"/>
        <path class="st0" d="M12.1,27.4c.1-.1.2-.2.4-.3,0,0,0,0,.1-.1,0,0,0,0,0,0,0,0,0,0,0-.1-.1-.1-.3-.2-.4-.4-.3-.3-1.1-1.1-1.7-1-.2,0-.3,0-.5.1-.5.2-1,.4-1.4.5-.2,0-.5.2-.7.3-.3.1-.7.2-.9.4,0,.1,0,.2,0,.3.2.1.5.2.7.3.3,0,.5.2.8.3.5.2,1,.4,1.4.6.1,0,.3.1.5.1.6,0,1.4-.7,1.7-1Z"/>
        <path class="st0" d="M13.4,27c0,.4-.3.7-.6.7-.3,0-.6-.3-.6-.7,0-.4.3-.7.6-.7.3,0,.6.3.6.7Z"/>
        <path class="st0" d="M110.7,27.4c-.1-.1-.2-.2-.4-.3,0,0,0,0-.1-.1,0,0,0,0,0,0,0,0,0,0,0-.1.1-.1.3-.2.4-.4.3-.3,1.1-1.1,1.7-1,.2,0,.3,0,.5.1.5.2,1,.4,1.4.5.2,0,.5.2.7.3.3.1.7.2.9.4,0,.1,0,.2,0,.3-.2.1-.5.2-.7.3-.3,0-.5.2-.8.3-.5.2-1,.4-1.4.6-.1,0-.3.1-.5.1-.6,0-1.4-.7-1.7-1Z"/>
        <path class="st0" d="M109.4,27c0,.4.3.7.6.7.3,0,.6-.3.6-.7,0-.4-.3-.7-.6-.7-.3,0-.6.3-.6.7Z"/>
      </g>
    </g>
  </g>
</svg>