<?xml version="1.0" encoding="UTF-8"?>
<svg id="Capa_1" xmlns="http://www.w3.org/2000/svg" version="1.1" viewBox="0 0 122 40.6">
  <!-- Generator: Adobe Illustrator 29.5.1, SVG Export Plug-In . SVG Version: 2.1.0 Build 141)  -->
  <defs>
    <style>
      .st0 {
        fill: #99774c;
      }
    </style>
  </defs>
  <g>
    <g>
      <path class="st0" d="M86.6,11.6c-2.8-1.1-5.7,0-8.4.8-.3,0-1.4.5-1.6.4-.2-.1-.3-.9-.5-1.2-.4-.6-1.2-1-1.9-1.1-.6,0-1.1,0-1.6.4,0,0-.1,0-.1.2,0,.2.2.3.3.4,1.7,1,.7,3.3-.5,4.2-2.4,1.7-5.2,3.3-8.1,2.4-3.2-1-4.7-5.1-2.3-7.6.3-.3.7-.6,1.2-.7.5,0,1,.1,1.2.5.3.5,0,1.1.2,1.6.2,1,1.7,1.2,2.4.6.7-.7.6-2,0-2.7s-1.7-1-2.7-.9c-2.6.3-4.5,2.9-4.4,5.5,0,.4,0,.8.1,1.1.2,1.2.9,2.2,1.9,3,1.1.8,2.6,1.2,3.9,1.1.2,0,.3,0,.5,0,2.7-.3,5.2-1.5,7.4-3,1.3-.7,2.8-1.2,4.3-1.3.8,0,1.6,0,2.4.1.7.1,2.1,1,1.2,2-.2.2,0,.4.1.4,1.1,0,2.3-.7,2.7-2,0-.3.1-.7,0-1.1,0-.3-.3-.6-.4-.9.8-.3,1.5-.9,2.4-1.3.4-.2.8-.7.2-.9Z"/>
      <g>
        <path class="st0" d="M60.5,19.1c.4.2.7.5,1,.8,5.2,4.6,13.1,5.1,19.3,2.2,1.5-.7,3-1.5,4.5-2.5.9-.6,1.7-1.2,2.5-1.9.8-.6,1.8-1.1,2.4-1.9.4-.5.6-1.1.9-1.6.3-.5.6-1,1-1.5.8-1.1,1.8-1.9,3.1-2.4,1.1-.4,2.3-.5,3.5-.6.5,0,1,0,1.5,0,.3,0,.8,0,.9.3,0,.3-1.5,1.8-1.6,2.1,3.4-1.2,7.3-.3,9.9,2,1.1,1,2,2.3,2.3,3.8.4,1.9-.3,3.9-1.3,5.6-.5.9-1.2,1.7-2,2.3s-1.8,1-2.9.9-2-.7-2.5-1.6c-.2-.5-.3-1-.2-1.5.1-.6.5-1.2,1.1-1.5,1.3-.6,2.9.6,4-.1.5-.3.8-.9.8-1.4.2-1.5-.8-2.9-1.9-3.7-1.2-.9-2.7-1.4-4.2-1.6-3.7-.5-7.7.8-11,2.4-.6.3-1.2.6-1.7.9,0,0-.1,0-.2.1-2.9,1.7-5.4,4-8.4,5.5-3.9,2-8.2,2.9-12.5,2-2.7-.6-5.3-2-7.3-4.3-.6-.7-1.5-1.9-1.5-3,0,0,.2,0,.2.1Z"/>
        <path class="st0" d="M67.1,24.3c-.8.2.5,1.6.7,1.9.4.6.8,1.6,0,2.1-.4.2-.8.3-1.3.3-1.3.1-1.6,1-1.1,2.2.3.7,1.1.9,1.9.9,1.9-.2,3.2-1.6,2.9-3.5-.2-1.6-1.2-2.8-2.5-3.7-.2-.1-.5-.2-.7-.2Z"/>
      </g>
    </g>
    <g>
      <path class="st0" d="M32.7,11.6c2.8-1.1,5.7,0,8.4.8.3,0,1.4.5,1.6.4.2-.1.3-.9.5-1.2.4-.6,1.2-1,1.9-1.1.6,0,1.1,0,1.6.4,0,0,.1,0,.1.2,0,.2-.2.3-.3.4-1.7,1-.7,3.3.5,4.2,2.4,1.7,5.2,3.3,8.1,2.4,3.2-1,4.7-5.1,2.3-7.6-.3-.3-.7-.6-1.2-.7-.5,0-1,.1-1.2.5-.3.5,0,1.1-.2,1.6-.2,1-1.7,1.2-2.4.6-.7-.7-.6-2,0-2.7s1.7-1,2.7-.9c2.6.3,4.5,2.9,4.4,5.5,0,.4,0,.8-.1,1.1-.2,1.2-.9,2.2-1.9,3-1.1.8-2.6,1.2-3.9,1.1-.2,0-.3,0-.5,0-2.7-.3-5.2-1.5-7.4-3-1.3-.7-2.8-1.2-4.3-1.3-.8,0-1.6,0-2.4.1-.7.1-2.1,1-1.2,2,.2.2,0,.4-.1.4-1.1,0-2.3-.7-2.7-2,0-.3-.1-.7,0-1.1,0-.3.3-.6.4-.9-.8-.3-1.5-.9-2.4-1.3-.4-.2-.8-.7-.2-.9Z"/>
      <g>
        <path class="st0" d="M58.8,19.1c-.4.2-.7.5-1,.8-5.2,4.6-13.1,5.1-19.3,2.2-1.5-.7-3-1.5-4.5-2.5-.9-.6-1.7-1.2-2.5-1.9-.8-.6-1.8-1.1-2.4-1.9-.4-.5-.6-1.1-.9-1.6-.3-.5-.6-1-1-1.5-.8-1.1-1.8-1.9-3.1-2.4-1.1-.4-2.3-.5-3.5-.6-.5,0-1,0-1.5,0-.3,0-.8,0-.9.3,0,.3,1.5,1.8,1.6,2.1-3.4-1.2-7.3-.3-9.9,2-1.1,1-2,2.3-2.3,3.8-.4,1.9.3,3.9,1.3,5.6.5.9,1.2,1.7,2,2.3s1.8,1,2.9.9,2-.7,2.5-1.6c.2-.5.3-1,.2-1.5-.1-.6-.5-1.2-1.1-1.5-1.3-.6-2.9.6-4-.1-.5-.3-.8-.9-.8-1.4-.2-1.5.8-2.9,1.9-3.7,1.2-.9,2.7-1.4,4.2-1.6,3.7-.5,7.7.8,11,2.4.6.3,1.2.6,1.7.9,0,0,.1,0,.2.1,2.9,1.7,5.4,4,8.4,5.5,3.9,2,8.2,2.9,12.5,2,2.7-.6,5.3-2,7.3-4.3.6-.7,1.5-1.9,1.5-3,0,0-.2,0-.2.1Z"/>
        <path class="st0" d="M52.3,24.3c.8.2-.5,1.6-.7,1.9-.4.6-.8,1.6,0,2.1.4.2.8.3,1.3.3,1.3.1,1.6,1,1.1,2.2-.3.7-1.1.9-1.9.9-1.9-.2-3.2-1.6-2.9-3.5.2-1.6,1.2-2.8,2.5-3.7.2-.1.5-.2.7-.2Z"/>
      </g>
    </g>
    <path class="st0" d="M60.6,23.6c-.2-.1-.4-.3-.6-.4,0,0-.1,0-.2-.1,0,0,0,0,0,0,0,0-.1,0-.2.1-.2.2-.4.3-.6.5-.5.4-1.9,1.3-1.8,2,0,.2.1.4.2.5.3.6.7,1.1,1,1.7.2.3.3.6.5.8.2.4.3.8.8,1,.2,0,.3,0,.5-.1.2-.2.4-.6.5-.8.2-.3.3-.6.5-.9.3-.6.7-1.1,1-1.7.1-.2.2-.4.2-.5.1-.7-1.3-1.6-1.8-2Z"/>
  </g>
  <g>
    <path class="st0" d="M7,8.3c.6.1,1.4.2,2.2.2,18.7.2,37.4.2,56.1.2,3.6,0,7.2,0,10.8,0,6.1,0,12.3,0,18.5,0,3.1,0,6.3,0,9.4-.1,1.6,0,3.2,0,4.8,0,1,0,3.1,0,3.8-.2-.5-.1-1.4-.1-2.1-.1-19,0-38,0-57,0-7.6,0-15.3,0-22.9,0-7.9,0-15.8,0-23.7.2,0,0,0,0,.1,0Z"/>
    <path class="st0" d="M110.8,7.7c-.1.1-.2.2-.4.3,0,0,0,0-.1.1,0,0,0,0,0,0,0,0,0,0,0,.1.1.1.3.2.4.4.3.3,1.1,1.1,1.7,1,.2,0,.3,0,.5-.1.5-.2,1-.4,1.5-.5.2,0,.5-.2.7-.3.3-.1.7-.2.9-.4,0-.1,0-.2,0-.3-.2-.1-.5-.2-.7-.3-.3,0-.5-.2-.8-.3-.5-.2-1-.4-1.5-.6-.2,0-.3-.1-.5-.1-.6,0-1.4.7-1.7,1Z"/>
    <path class="st0" d="M109.4,8.2c0-.4.3-.7.6-.7.3,0,.6.3.6.7,0,.4-.3.7-.6.7-.3,0-.6-.3-.6-.7Z"/>
    <path class="st0" d="M11.2,7.8c.1.1.2.2.4.3,0,0,0,0,.1.1,0,0,0,0,0,0,0,0,0,0,0,.1-.1.1-.3.2-.4.4-.3.3-1.1,1.1-1.7,1-.2,0-.3,0-.5-.1-.5-.2-1-.4-1.5-.5-.2,0-.5-.2-.7-.3-.3-.1-.7-.2-.9-.4,0-.1,0-.2,0-.3.2-.1.5-.2.7-.3.3,0,.5-.2.8-.3.5-.2,1-.4,1.5-.6.2,0,.3-.1.5-.1.6,0,1.4.7,1.7,1Z"/>
    <path class="st0" d="M12.6,8.2c0-.4-.3-.7-.6-.7-.3,0-.6.3-.6.7,0,.4.3.7.6.7.3,0,.6-.3.6-.7Z"/>
  </g>
</svg>